<svg xmlns:rdf="http://www.w3.org/1999/02/22-rdf-syntax-ns#" xmlns="http://www.w3.org/2000/svg" xmlns:cc="http://creativecommons.org/ns#" xmlns:dc="http://purl.org/dc/elements/1.1/" version="1.1" viewBox="0 0 100 100" x="0px" y="0px"><path style="baseline-shift:baseline;block-progression:tb;color:#000000;direction:ltr;text-indent:0;enable-background:accumulate;text-transform:none;" fill="#000" d="M5,17.188v2.062,63.875,2.063h1.9062,57.219l0.563-4h-55.688v-60h82v60h-1.812l0.874,4h3.032,1.906v-2.063-63.875-2.062h-1.906-86.188-1.9062zm19.656,6.968c-0.64,0-1.318,0.098-2.031,0.313l-0.031,0.031h-0.032c-1.891,0.66-5.103,3.196-4.593,8.219-0.015,0.017-0.019,0.045-0.031,0.062-0.571,0.717-0.434,1.708-0.25,2.5,0.318,1.368,0.859,2.075,1.374,2.438,0.17,0.673,0.531,1.658,1.313,2.719l0.031,0.031c0.045,0.061,0.078,0.095,0.125,0.156,0.051,0.86,0.024,1.404,0,1.687-0.598,0.325-2.278,0.822-3.625,1.063-1.615,0.288-3.627,1.032-4.812,4.156-0.201,0.532-0.108,1.09,0.218,1.563,1.217,1.762,7.616,2.156,12.782,2.156s11.596-0.394,12.812-2.156c0.327-0.473,0.388-1.032,0.188-1.563-1.186-3.125-3.197-3.868-4.813-4.156-1.348-0.242-3.03-0.735-3.625-1.063-0.019-0.27-0.022-0.82,0.032-1.718,0.032-0.037,0.061-0.055,0.093-0.094v-0.031c0.797-1.069,1.172-2.072,1.344-2.75,0.515-0.363,1.057-1.07,1.375-2.438,0.184-0.793,0.319-1.783-0.25-2.5-0.014-0.017-0.017-0.045-0.031-0.062,0.509-5.023-2.734-7.559-4.625-8.219h-0.032v-0.031c-0.688-0.208-1.347-0.306-1.968-0.313-0.005-0.002-0.026,0.002-0.032,0h-0.062c-0.15,0-0.27,0.021-0.406,0.032-0.139-0.012-0.295-0.032-0.438-0.032zm15.344,0.844v2h48v-2h-48zm0,5v2h48v-2h-48zm-17.875,0.156s2.661,2.748,5.969,3.344c0,0-0.716-1.337-1.313-2.531,0,0,1.922,2.173,3.594,2.531,0,0,0.248-0.34,0.531-0.875-0.029,0.283-0.066,0.57-0.125,0.875,0,0,0.079-0.031,0.188-0.031,0.236,0,0.558,0.211,0.25,1.531-0.394,1.698-1.061,1.781-1.219,1.781h-0.031s-0.067,1.596-1.531,3.313c0,0.013-0.032,0.018-0.032,0.031-1.14,1.16-2.302,1.731-3.468,1.687-1.45-0.06-2.587-1.056-3.157-1.656-0.001-0.009,0-0.022,0-0.031-1.495-1.732-1.593-3.344-1.593-3.344h-0.032c-0.158,0-0.825-0.083-1.218-1.781-0.307-1.319,0.013-1.531,0.25-1.531,0.108,0,0.218,0.031,0.218,0.031h0.032l0.531,1.656s-0.352-4.641,2.156-5zm17.875,4.844v2h48v-2h-48zm0,5v2h48v-2h-48zm-11.656,1.844c0.005,0.466,0.041,0.872,0.125,1.094,0.125,0.335,0.873,0.704,1.75,1-1.272,1.246-3.101,2.031-5.125,2.031s-3.822-0.787-5.094-2.031c0.875-0.297,1.594-0.665,1.719-1,0.082-0.217,0.119-0.61,0.125-1.063,0.771,0.578,1.791,1.133,3.031,1.187,0.068,0.004,0.151,0,0.219,0,1.12,0,2.199-0.416,3.25-1.218zm11.656,3.156v2h28v-2h-28zm33.438,0.438c-0.184-0.011-0.381-0.003-0.563,0.031-1.39,0.255-2.318,1.901-3.563,2.656-0.045,0.028-0.109,0.038-0.156,0.063-1.269,0.687-3.264,0.522-4.312,1.624-0.34,0.356-0.52,0.824-0.656,1.313-0.287,1.024-0.328,2.213-0.75,3.094-0.053,0.111-0.091,0.236-0.157,0.343-0.639,1.035-1.8,1.919-2.219,3-0.065,0.168-0.131,0.321-0.156,0.5-0.129,0.972,0.433,1.941,0.906,2.907,0.242,0.491,0.474,0.978,0.563,1.469,0.086,0.473,0.049,1.001,0,1.531-0.101,1.08-0.29,2.212,0.187,3.093,0.068,0.124,0.128,0.235,0.219,0.344,0.665,0.803,1.901,1.221,2.875,1.844,0.235,0.15,0.464,0.316,0.656,0.5,0.202,0.192,0.395,0.386,0.563,0.625,0.748,1.062,1.25,2.49,2.313,3,1.349,0.646,3.173-0.253,4.624-0.063,1.453,0.194,2.963,1.488,4.407,1.25,0.013-0.001,0.017,0.002,0.031,0,1.152-0.211,1.973-1.394,2.938-2.218,0.24-0.207,0.519-0.39,0.781-0.532,1.271-0.687,3.264-0.522,4.312-1.624,1.049-1.102,0.751-3.073,1.375-4.376,0.163-0.342,0.399-0.685,0.656-1,0.762-0.926,1.764-1.759,1.907-2.843,0.195-1.467-1.201-2.952-1.469-4.407-0.263-1.441,0.526-3.279-0.188-4.593-0.685-1.268-2.647-1.639-3.75-2.688-1.102-1.049-1.573-3.002-2.874-3.625-0.232-0.111-0.494-0.154-0.75-0.187-0.942-0.124-1.981,0.171-2.969,0.25-0.301,0.023-0.595,0.036-0.875,0-1.284-0.17-2.621-1.207-3.906-1.281zm-33.438,4.562v2h22v-2h-22zm35.562,0.375c0.917,0,1.818,0.136,2.657,0.375,1.092,0.31,2.073,0.82,2.969,1.469,2.419,1.752,4.031,4.565,4.031,7.781,0,0.954-0.147,1.878-0.407,2.75-0.611,2.063-1.923,3.832-3.624,5.062-0.898,0.651-1.879,1.159-2.969,1.469-0.84,0.24-1.74,0.375-2.657,0.375-0.386,0-0.751-0.018-1.124-0.062-1.912-0.226-3.663-1.011-5.063-2.188-0.867-0.728-1.62-1.604-2.187-2.594-0.156-0.267-0.278-0.559-0.407-0.843-0.42-0.931-0.708-1.94-0.812-3-0.033-0.317-0.031-0.646-0.031-0.969,0-0.853,0.103-1.649,0.312-2.438,0.287-1.085,0.753-2.101,1.375-3,1.04-1.508,2.508-2.718,4.219-3.437,0.811-0.341,1.687-0.58,2.594-0.687,0.374-0.045,0.738-0.063,1.124-0.063zm-35.562,4.625v2h19v-2h-19zm-20.562,1.219c-1.641,0.007-2.532,0.884-2.938,1.937l-2.094,5.5c-0.846,0.109-2.346,1.117-2.344,3v7h2.063v2.219c-0.005,2.757,3.907,2.724,3.906,0v-2.219h7,7v2.219c0.009,2.724,3.935,2.757,3.938,0v-2.219h2.062v-7c-0.006-1.883-1.49-2.891-2.343-3l-2.126-5.5c-0.398-1.053-1.289-1.93-2.937-1.937h-3-5.125-3.062zm0,2h5.593,5.625c0.7,0.01,1.016,0.447,1.219,1.062l1.594,4.344h-8.438-8.406l1.594-4.344c0.194-0.615,0.508-1.052,1.219-1.062zm20.562,1.781v2h19v-2h-19zm0,5v2h20v-2h-20zm-23.844,0.719c0.994-0.009,1.783,0.845,1.782,1.875,0,1.022-0.788,1.846-1.782,1.844-0.996,0.002-1.816-0.822-1.812-1.844-0.005-1.03,0.816-1.884,1.812-1.875zm17.782,0c0.986-0.009,1.806,0.845,1.812,1.875-0.006,1.022-0.826,1.846-1.812,1.844-1.004,0.002-1.776-0.822-1.782-1.844,0.006-1.03,0.778-1.884,1.782-1.875zm6.062,4.281v2h23v-2h-23zm46.531,3.031c-0.449,0.145-0.914,0.22-1.343,0.313-0.564,0.121-1.093,0.25-1.438,0.437-0.165,0.09-0.326,0.225-0.5,0.375l-0.219,1.375-1.343,9.407c0.433,0.125,0.885,0.276,1.218,0.374l5.688,1.657c0.539,0.161,0.901-0.137,0.781-0.688l-2.187-10.093c-0.119-0.552-0.29-1.479-0.407-2.032l-0.219-0.937-0.031-0.188zm-19.875,1.125l-0.094,0.532v0.218l-0.406,2.782-0.062,0.5c-0.08,0.558-0.233,1.473-0.313,2.031l-1.719,12.187c-0.08,0.558,0.266,0.824,0.782,0.594l5.687-2.562c0.513-0.232,1.29-0.117,1.719,0.25l4.75,4.062c0.427,0.366,0.827,0.185,0.906-0.375l1.75-12.187c0.08-0.558,0.2-1.442,0.282-2l0.374-2.5,0.157-1.126,0.031-0.187c-0.111,0.094-0.224,0.195-0.344,0.281-0.48,0.35-1.018,0.632-1.656,0.75-0.21,0.039-0.437,0.063-0.656,0.063-0.417,0-0.833-0.082-1.219-0.188-0.552-0.152-1.051-0.382-1.531-0.593-0.543-0.24-1.056-0.448-1.469-0.5-0.083-0.013-0.179-0.032-0.281-0.032-0.365,0-0.822,0.056-1.282,0.125-0.542,0.085-1.072,0.188-1.656,0.188-0.165,0-0.345-0.018-0.5-0.031-0.488-0.046-0.912-0.154-1.312-0.344-0.27-0.131-0.502-0.289-0.719-0.469-0.341-0.28-0.627-0.591-0.875-0.937-0.119-0.167-0.236-0.362-0.344-0.532zm-26.656,0.844v2h24v-2h-24z"></path></svg>