<svg xmlns="http://www.w3.org/2000/svg" xmlns:xlink="http://www.w3.org/1999/xlink" version="1.1" x="0px" y="0px" viewBox="0 0 111.304 89" style="enable-background:new 0 0 111.304 89;" xml:space="preserve"><g><polygon points="4.718,25.735 12.936,25.735 14.218,21.446 9.008,21.446 9.008,4.289 102.297,4.289 102.297,21.446 97.086,21.446    98.368,25.735 106.586,25.735 106.586,0 4.718,0  "></polygon><path d="M111.304,78.096L92.12,13.901l-7.78-2.86H69.35l-0.162-1.409H42.117l-0.162,1.409H26.949l-7.765,2.86L0,78.096l9.089,7.095   h24.344L32.995,89h45.316l-0.438-3.809h24.317L111.304,78.096z M12.653,81.112l-6.136-4.591l16.479-61.928l5.216-1.954h54.881   l5.199,1.954l16.471,61.928l-6.112,4.591H12.653z"></path><polygon points="33.843,27.406 77.462,27.406 77.299,26.394 34.006,26.394  "></polygon><polygon points="56.334,17.238 55.644,17.083 54.953,17.238 32.667,22.242 78.638,22.242  "></polygon><path d="M82.036,50.375c-0.01-0.002-0.063-0.015-0.16-0.038s-0.237-0.055-0.419-0.095s-0.407-0.09-0.674-0.146   c-0.266-0.057-0.574-0.121-0.923-0.191l-7.368-12.412c-0.162-0.019-1.054-0.124-2.36-0.27c-1.305-0.146-3.023-0.333-4.842-0.518   c-1.816-0.184-3.733-0.366-5.44-0.502c-1.706-0.135-3.204-0.225-4.189-0.225c-0.987,0-2.487,0.089-4.194,0.225   c-1.709,0.136-3.626,0.317-5.443,0.502c-1.819,0.185-3.538,0.372-4.843,0.518c-1.307,0.146-2.198,0.251-2.36,0.27l-7.376,12.412   c-0.346,0.07-0.653,0.134-0.919,0.191c-0.266,0.057-0.491,0.106-0.674,0.146c-0.183,0.041-0.324,0.073-0.421,0.095   s-0.152,0.035-0.162,0.038l-0.827,8.019h54.42L82.036,50.375z M39.917,54.96c-0.196,0.318-0.469,0.606-0.8,0.848   c-0.332,0.242-0.721,0.439-1.149,0.575c-0.428,0.136-0.895,0.212-1.378,0.212s-0.939-0.075-1.348-0.212   c-0.408-0.136-0.769-0.333-1.066-0.575c-0.296-0.242-0.527-0.529-0.677-0.848c-0.149-0.317-0.216-0.665-0.185-1.029   c0.031-0.365,0.158-0.711,0.36-1.025c0.201-0.313,0.477-0.595,0.809-0.831c0.331-0.236,0.716-0.426,1.138-0.557   c0.421-0.131,0.878-0.204,1.352-0.204c0.474,0,0.921,0.073,1.323,0.204c0.403,0.131,0.761,0.322,1.057,0.557   c0.297,0.236,0.532,0.518,0.688,0.831c0.156,0.314,0.232,0.66,0.211,1.025C40.231,54.295,40.113,54.643,39.917,54.96z    M61.524,47.583c-2.082-0.134-4.12-0.222-5.872-0.222c-1.75,0-3.787,0.088-5.868,0.222c-2.084,0.134-4.214,0.313-6.148,0.495   c-1.936,0.182-3.675,0.367-4.968,0.511c-1.295,0.144-2.144,0.248-2.299,0.266l5.132-8.879c0.75-0.087,1.826-0.209,3.063-0.342   c1.236-0.134,2.633-0.279,4.029-0.414c1.394-0.135,2.788-0.258,4.02-0.348c1.231-0.09,2.3-0.146,3.048-0.146   c0.746,0,1.814,0.056,3.043,0.146c1.23,0.09,2.623,0.214,4.016,0.348c1.395,0.135,2.791,0.281,4.026,0.414   c1.236,0.134,2.31,0.256,3.058,0.342l5.132,8.879c-0.154-0.019-1.003-0.122-2.297-0.266c-1.293-0.144-3.031-0.329-4.966-0.511   C65.739,47.896,63.608,47.717,61.524,47.583z M77.804,54.96c-0.149,0.318-0.381,0.606-0.677,0.848   c-0.297,0.242-0.658,0.439-1.066,0.575c-0.409,0.136-0.864,0.212-1.348,0.212c-0.482,0-0.946-0.075-1.373-0.212   c-0.427-0.136-0.815-0.333-1.147-0.575c-0.331-0.242-0.603-0.529-0.799-0.848c-0.195-0.317-0.313-0.665-0.335-1.029   c-0.022-0.365,0.055-0.711,0.211-1.025c0.156-0.313,0.39-0.595,0.687-0.831c0.296-0.236,0.653-0.426,1.054-0.557   c0.401-0.131,0.846-0.204,1.318-0.204c0.474,0,0.931,0.073,1.352,0.204c0.422,0.131,0.807,0.322,1.138,0.557   c0.331,0.236,0.607,0.518,0.809,0.831c0.202,0.314,0.328,0.66,0.36,1.025C78.021,54.295,77.953,54.643,77.804,54.96z"></path><path d="M83.01,59.827H28.294l-0.44,4.266h2.142l-0.346,3.635c-0.023,0.24,0.016,0.469,0.106,0.678   c0.09,0.209,0.231,0.397,0.412,0.555c0.182,0.158,0.404,0.287,0.656,0.375c0.252,0.089,0.534,0.138,0.835,0.138h4.36   c0.303,0,0.595-0.049,0.862-0.138c0.267-0.089,0.511-0.217,0.718-0.375c0.207-0.158,0.378-0.346,0.501-0.555   c0.123-0.208,0.198-0.437,0.213-0.678l0.231-3.635h34.214l0.231,3.635c0.015,0.24,0.091,0.469,0.215,0.678   c0.124,0.209,0.296,0.397,0.504,0.555c0.208,0.158,0.452,0.287,0.719,0.375c0.267,0.089,0.557,0.138,0.858,0.138h4.36   c0.301,0,0.583-0.049,0.836-0.138c0.253-0.089,0.476-0.217,0.659-0.375c0.183-0.158,0.325-0.346,0.416-0.555   c0.091-0.208,0.13-0.437,0.107-0.678l-0.346-3.635h2.132L83.01,59.827z"></path></g></svg>