<svg xmlns="http://www.w3.org/2000/svg" xmlns:xlink="http://www.w3.org/1999/xlink" viewBox="0 0 60 60" version="1.1" x="0px" y="0px"><title>Geography - Outline - 050 - Street Map pin</title><desc>Created with Sketch.</desc><g stroke="none" stroke-width="1" fill="none" fill-rule="evenodd"><g transform="translate(0.000000, -1.000000)" fill-rule="nonzero" fill="#000000"><path d="M54,1 C53.5928488,0.997696032 53.1866031,1.03861525 52.78809,1.12207 C52.7589897,1.13310658 52.7304695,1.14561607 52.70264,1.15955 C52.6384327,1.17996657 52.5765652,1.20711762 52.51807,1.24055 C52.4639405,1.2698447 52.4127576,1.30428363 52.36523,1.34339 C52.3161845,1.38534033 52.2714493,1.43208209 52.23169,1.48292 C52.1924723,1.53060721 52.1578924,1.58192625 52.12842,1.63618 C52.0991691,1.6925815 52.0755354,1.75172274 52.05786,1.81275 C52.0379782,1.87626254 52.024803,1.94168272 52.01855,2.00794 C52.0107718,2.03815216 52.00458,2.06875067 52,2.09961 L52,8 L31.63354,8 C30.3292893,3.78901996 26.4079224,0.939644942 22,1 C17.5920776,0.939644942 13.6707107,3.78901996 12.36646,8 L8,8 L8,2.09961 C7.99542039,2.06870769 7.98922861,2.03806589 7.98145,2.00781 C7.97520366,1.94165318 7.96202809,1.87633508 7.94214,1.81293 C7.92454507,1.75175952 7.90090869,1.69249104 7.87158,1.636 C7.84207558,1.58184714 7.80749714,1.53061734 7.76831,1.483 C7.64609735,1.33170513 7.48244184,1.21930599 7.29736,1.15955 C7.2695305,1.14561607 7.24101033,1.13310658 7.21191,1.12207 C6.81339689,1.03861525 6.40715118,0.997696032 6,1 C4.40747441,0.995987635 2.87901856,1.62684013 1.75292935,2.75292935 C0.626840128,3.87901856 -0.00401236483,5.40747441 2.22041217e-16,7 L2.22041217e-16,55 C0.0036209231,58.3122075 2.6877925,60.9963791 6,61 L54,61 C57.3122075,60.9963791 59.9963791,58.3122075 60,55 L60,7 C59.9963791,3.6877925 57.3122075,1.00362092 54,1 Z M58,7 L58,50.54047 C56.9034092,49.5494012 55.4780827,49.000483 54,49 L54,3 C56.208225,3.00220492 57.9977951,4.79177495 58,7 Z M44,21 L52,21 L52,41 L44,41 L44,21 Z M52,13 L44,13 L44,10 L52,10 L52,13 Z M36,10 L36,26 L25.00562,26 C27.58325,21.85443 32,14.08148 32,10.51758 C32,10.3429 31.98218,10.17242 31.97241,10 L36,10 Z M22,3 C26.2816452,2.87580066 29.8579958,6.23648831 30,10.51758 C30,13.6048 25.35425,21.85645 22.52881,26.2619 C22.4018103,26.3765634 22.307036,26.5224723 22.25391,26.68512 C22.18066,26.79761 22.10242,26.92012 22.03223,27.02637 C19.23145,22.88574 14,13.793 14,10.51758 C14.1420042,6.23648831 17.7183548,2.87580066 22,3 Z M12.02759,10 C12.01782,10.17242 12,10.3429 12,10.51758 C12,14.08167 16.417,21.8551 18.99414,26 L8,26 L8,10 L12.02759,10 Z M3.16309,4.1709 C3.91623244,3.42013311 4.93657466,2.9989993 6,3 L6,49 C4.52191728,49.000483 3.09659079,49.5494012 2,50.54047 L2,7 C1.99830464,5.94026149 2.41651307,4.92301134 3.16309,4.1709 Z M2,55 C2.00220492,52.791775 3.79177495,51.0022049 6,51 C6.26467868,50.9979334 6.52883699,51.0237932 6.78809,51.07715 C6.82407978,51.0797592 6.86019111,51.0802667 6.89624,51.07867 C6.93040419,51.0876007 6.96504619,51.0945919 7,51.09961 C7.032,51.09961 7.059,51.08435 7.09021,51.08142 C7.4149131,51.0556792 7.70450121,50.8672838 7.85962,50.58087 C7.89277616,50.5226477 7.91969844,50.4610905 7.93994,50.39722 C7.95396183,50.3693298 7.96651237,50.3407239 7.97754,50.31152 C7.98003975,50.275769 7.98052718,50.2399057 7.979,50.2041 C7.98797391,50.169696 7.99498521,50.1348097 8,50.09961 L8,34 L36,34 L36,38.58594 L15.58594,59 L6,59 C3.79177495,58.9977951 2.00220492,57.208225 2,55 Z M36,59 L26.9043,59 L36,49.9043 L36,59 Z M38,59 L38,47.49023 C37.9988726,47.0860195 37.7547651,46.7221476 37.3811805,46.567804 C37.0075958,46.4134605 36.5778452,46.4989332 36.29175,46.78448 L24.07617,59 L18.41406,59 L37.70581,39.70831 C37.8929776,39.5199301 37.998632,39.2655501 38,39 L38,33 C38.0001513,32.7347371 37.8948431,32.4802953 37.7072739,32.2927261 C37.5197047,32.1051569 37.2652629,31.9998487 37,32 L8,32 L8,28 L20.27783,28 C20.30798,28.04517 20.34717,28.10529 20.375,28.14648 C20.7431834,28.6806943 21.3504356,28.9997982 21.9992375,28.9999979 C22.6480393,29.0001976 23.2554878,28.6814675 23.624,28.14748 C23.65208,28.10598 23.69139,28.04548 23.7219,28.00002 L37,28.00002 C37.2652629,28.0001713 37.5197047,27.8948631 37.7072739,27.7072939 C37.8948431,27.5197247 38.0001513,27.2652829 38,27.00002 L38,10 L42,10 L42,14 C41.9998487,14.2652629 42.1051569,14.5197047 42.2927261,14.7072739 C42.4802953,14.8948431 42.7347371,15.0001513 43,15 L52,15 L52,19 L43,19 C42.7347371,18.9998487 42.4802953,19.1051569 42.2927261,19.2927261 C42.1051569,19.4802953 41.9998487,19.7347371 42,20 L42,42 C41.9998487,42.2652629 42.1051569,42.5197047 42.2927261,42.7072739 C42.4802953,42.8948431 42.7347371,43.0001513 43,43 L52,43 L52,47 L43,47 C42.7347371,46.9998487 42.4802953,47.1051569 42.2927261,47.2927261 C42.1051569,47.4802953 41.9998487,47.7347371 42,48 L42,59 L38,59 Z M54,59 L44,59 L44,49 L52,49 L52,50.09961 C52.0050148,50.1347701 52.0120262,50.1696164 52.021,50.20398 C52.0194729,50.2398257 52.0199603,50.2757289 52.02246,50.31152 C52.0334974,50.340658 52.0460478,50.3692001 52.06006,50.39703 C52.0804842,50.4614005 52.1076972,50.523416 52.14124,50.58203 C52.2622588,50.8057509 52.468187,50.9713844 52.71265,51.04163 C52.776826,51.0617744 52.8429432,51.0751112 52.90991,51.08142 C52.94104,51.08435 52.96802,51.09961 53,51.09961 C53.0686387,51.0790772 53.1404921,51.0714616 53.21191,51.07715 C53.471163,51.0237932 53.7353213,50.9979334 54,51 C56.209139,51 58,52.790861 58,55 C58,57.209139 56.209139,59 54,59 L54,59 Z"></path><path d="M22,16 C24.7614237,16 27,13.7614237 27,11 C27,8.23857625 24.7614237,6 22,6 C19.2385763,6 17,8.23857625 17,11 C17.0032401,13.7600805 19.2399195,15.9967599 22,16 L22,16 Z M22,8 C23.6568542,8 25,9.34314575 25,11 C25,12.6568542 23.6568542,14 22,14 C20.3431458,14 19,12.6568542 19,11 C19.0018077,9.34389511 20.3438951,8.00180771 22,8 L22,8 Z"></path></g></g></svg>