<svg fill="#F38F19" xmlns:x="http://ns.adobe.com/Extensibility/1.0/" xmlns:i="http://ns.adobe.com/AdobeIllustrator/10.0/" xmlns:graph="http://ns.adobe.com/Graphs/1.0/" xmlns="http://www.w3.org/2000/svg" xmlns:xlink="http://www.w3.org/1999/xlink" version="1.1" x="0px" y="0px" viewBox="0 0 64 64" enable-background="new 0 0 64 64" xml:space="preserve"><metadata><sfw xmlns="http://ns.adobe.com/SaveForWeb/1.0/"><slices></slices><sliceSourceBounds height="16385" width="16389" x="-8165" y="-8161" bottomLeftOrigin="true"></sliceSourceBounds></sfw></metadata><g><g><path d="M35,40c0-1.654-1.346-3-3-3s-3,1.346-3,3c0,0.891,0.407,1.732,1.117,2.312c0.278,0.228,0.414,0.586,0.354,0.939L29.181,51    h5.639l-1.291-7.749c-0.059-0.354,0.076-0.712,0.354-0.939C34.593,41.732,35,40.891,35,40z"></path><path d="M50,29h-5V18c0-7.168-5.832-13-13-13c-7.168,0-13,5.832-13,13v11h-5c-0.552,0-1,0.448-1,1v28c0,0.553,0.448,1,1,1h36    c0.553,0,1-0.447,1-1V30C51,29.448,50.553,29,50,29z M21,18c0-6.065,4.935-11,11-11s11,4.935,11,11v11H21V18z M36.986,51.836    c0.049,0.29-0.033,0.586-0.224,0.811C36.573,52.871,36.294,53,36,53h-8c-0.294,0-0.573-0.129-0.763-0.354    s-0.271-0.521-0.223-0.811l1.396-8.381C27.508,42.525,27,41.295,27,40c0-2.757,2.243-5,5-5s5,2.243,5,5    c0,1.295-0.508,2.525-1.41,3.455L36.986,51.836z"></path></g></g></svg>