<?xml version="1.0" encoding="iso-8859-1"?>
<!-- Generator: Adobe Illustrator 19.0.0, SVG Export Plug-In . SVG Version: 6.00 Build 0)  -->
<svg version="1.1" id="Capa_1" xmlns="http://www.w3.org/2000/svg" xmlns:xlink="http://www.w3.org/1999/xlink" x="0px" y="0px"
	 viewBox="0 0 480 480" style="enable-background:new 0 0 480 480;" xml:space="preserve">
<g>
	<g>
		<path d="M473.629,183.584l-45.248-45.256c-3.122-3.126-8.188-3.129-11.314-0.006c-0.002,0.002-0.004,0.004-0.006,0.006
			l-29.032,29.032V88c0-0.176-0.088-0.328-0.104-0.504c-0.04-0.701-0.177-1.393-0.408-2.056c-0.088-0.256-0.152-0.504-0.264-0.752
			c-0.387-0.872-0.929-1.666-1.6-2.344l-80-80c-0.693-0.678-1.507-1.221-2.4-1.6c-0.232-0.104-0.456-0.168-0.688-0.248
			c-0.698-0.247-1.428-0.393-2.168-0.432C300.317,0.08,300.181,0,300.029,0h-256c-4.418,0-8,3.582-8,8v400h-24c-4.418,0-8,3.582-8,8
			v32c0,17.673,14.327,32,32,32h320c17.673,0,32-14.327,32-32V280.496l85.6-85.6C476.752,191.772,476.752,186.708,473.629,183.584z
			 M281.285,319.36l-11.312-11.312l96.16-96.168l11.32,11.32L281.285,319.36z M289.101,349.8l-40.424,13.48l13.48-40.432
			L289.101,349.8z M308.029,27.312L360.717,80h-52.688V27.312z M36.029,464c-8.837,0-16-7.163-16-16v-24h304v24
			c-0.009,5.619,1.474,11.141,4.296,16H36.029z M372.029,448c0,8.837-7.163,16-16,16s-16-7.163-16-16v-32c0-4.418-3.582-8-8-8h-280
			V16h240v72c0,4.418,3.582,8,8,8h72v87.36l-0.232,0.24L253.005,302.4c-0.064,0.056-0.072,0.144-0.128,0.2
			c-0.807,0.831-1.424,1.827-1.808,2.92l-22.632,67.888c-1.392,4.193,0.879,8.721,5.073,10.113c0.813,0.27,1.663,0.407,2.519,0.407
			c0.86,0.004,1.715-0.137,2.528-0.416l67.872-22.624c1.092-0.378,2.086-0.992,2.912-1.8c0.064-0.056,0.152-0.072,0.208-0.128
			l62.48-62.464V448z M303.909,341.992l-11.312-11.312l96.168-96.176l11.32,11.32L303.909,341.992z M411.389,234.504l-33.936-33.936
			l5.656-5.656l5.656-5.664l33.936,33.952L411.389,234.504z M434.021,211.888l-33.944-33.952l22.624-22.624l33.944,33.944
			L434.021,211.888z"/>
	</g>
</g>
<g>
	<g>
		<polygon points="236.029,112 236.029,64 220.029,64 220.029,112 204.029,112 204.029,48 188.029,48 188.029,112 172.029,112 
			172.029,40 156.029,40 156.029,112 140.029,112 140.029,64 124.029,64 124.029,112 108.029,112 108.029,80 92.029,80 92.029,112 
			76.029,112 76.029,128 252.029,128 252.029,112 		"/>
	</g>
</g>
<g>
	<g>
		<rect x="76.029" y="152" width="16" height="16"/>
	</g>
</g>
<g>
	<g>
		<rect x="108.029" y="152" width="240" height="16"/>
	</g>
</g>
<g>
	<g>
		<rect x="76.029" y="184" width="256" height="16"/>
	</g>
</g>
<g>
	<g>
		<rect x="76.029" y="216" width="224" height="16"/>
	</g>
</g>
<g>
	<g>
		<rect x="76.029" y="248" width="192" height="16"/>
	</g>
</g>
<g>
	<g>
		<path d="M92.029,368v-80h-16v88c0,4.418,3.582,8,8,8h128v-16H92.029z"/>
	</g>
</g>
<g>
	<g>
		<path d="M190.373,306.344l-26.344,26.344l-18.344-18.344c-3.124-3.123-8.188-3.123-11.312,0l-32,32l11.312,11.312l26.344-26.344
			l18.344,18.344c3.124,3.123,8.188,3.123,11.312,0l32-32L190.373,306.344z"/>
	</g>
</g>
<g>
</g>
<g>
</g>
<g>
</g>
<g>
</g>
<g>
</g>
<g>
</g>
<g>
</g>
<g>
</g>
<g>
</g>
<g>
</g>
<g>
</g>
<g>
</g>
<g>
</g>
<g>
</g>
<g>
</g>
</svg>
