<svg xmlns:dc="http://purl.org/dc/elements/1.1/" xmlns:cc="http://creativecommons.org/ns#" xmlns:rdf="http://www.w3.org/1999/02/22-rdf-syntax-ns#" xmlns:svg="http://www.w3.org/2000/svg" xmlns="http://www.w3.org/2000/svg" xmlns:sodipodi="http://sodipodi.sourceforge.net/DTD/sodipodi-0.dtd" xmlns:inkscape="http://www.inkscape.org/namespaces/inkscape" version="1.1" x="0px" y="0px" viewBox="0 0 32 32" style="enable-background:new 0 0 32 32;" xml:space="preserve"><style type="text/css">
	.st0{fill:none;stroke:#4F5266;stroke-linecap:round;stroke-linejoin:round;stroke-miterlimit:10;}
	.st1{fill:#4F5266;}
	.st2{fill:none;stroke:#4F5266;stroke-miterlimit:10;}
	.st3{fill:#4F5266;stroke:#4F5266;stroke-miterlimit:10;}
</style><path style="" d="M 24 2 C 21.6 2 19.400781 3.0003906 17.800781 4.9003906 C 17.700781 5.1003906 17.700391 5.3996094 17.900391 5.5996094 C 18.100391 5.6996094 18.399609 5.7 18.599609 5.5 C 19.999609 3.9 21.9 3 24 3 C 27.9 3 31 6.1 31 10 C 31 13.9 27.9 17 24 17 C 22.6 17 21.2 16.499219 20 15.699219 C 19.8 15.499219 19.500781 15.600781 19.300781 15.800781 C 19.100781 16.000781 19.200391 16.3 19.400391 16.5 C 20.800391 17.5 22.3 18 24 18 C 28.4 18 32 14.4 32 10 C 32 5.6 28.4 2 24 2 z M 13.15625 2.9824219 C 12.94375 2.9683594 12.725 2.975 12.5 3 L 6.5 4 C 5.7 4.2 5 4.6007812 4.5 5.3007812 C 4 6.0007812 3.8 6.7996094 4 7.5996094 L 4.6308594 10 L 4.5 10 C 3.7 10 3 10.7 3 11.5 L 3 12.5 C 3 13.3 3.7 14 4.5 14 L 5.0917969 14 C 5.3675622 15.622381 6.2954628 17.027834 7.5996094 17.931641 L 7.5996094 19.800781 L 3.1992188 21.300781 C 1.9541504 21.759491 0.97614979 22.69358 0.44335938 23.84375 C 0.37520612 23.979874 0.3206349 24.120405 0.26953125 24.263672 C 0.25364583 24.308869 0.23521888 24.352717 0.22070312 24.398438 C 0.16251498 24.581729 0.11939856 24.766142 0.0859375 24.953125 C 0.076494252 25.00361 0.062466303 25.052593 0.0546875 25.103516 C 0.020417562 25.339026 0 25.574484 0 25.800781 L 0 29.5 C 0 29.8 0.2 30 0.5 30 L 5.5 30 L 21.5 30 C 21.575 30 21.644141 29.986719 21.705078 29.964844 C 21.705078 29.964844 21.707031 29.964844 21.707031 29.964844 C 21.771888 29.94132 21.825952 29.906239 21.871094 29.865234 C 21.972763 29.777607 22.049055 29.651663 22.099609 29.5 L 22.099609 25.800781 C 22.099609 25.000781 21.800391 24.100391 21.400391 23.400391 C 21.362331 23.362331 21.299799 23.327469 21.238281 23.294922 C 20.672445 22.40902 19.829766 21.725333 18.800781 21.400391 L 14.400391 19.902344 C 14.400391 19.901686 14.400391 19.901048 14.400391 19.900391 L 14.400391 17.933594 C 14.930856 17.566301 15.394668 17.113824 15.783203 16.599609 L 16 16.599609 C 17.6 16.599609 19 15.199609 19 13.599609 L 19 11.900391 L 19 11.5 C 19 10.7 18.3 10 17.5 10 L 17.400391 10 L 17.900391 8.5996094 C 18.100391 7.8996094 17.900391 7.1 17.400391 6.5 C 17.000391 6 16.500391 5.6996094 15.900391 5.5996094 C 15.800391 4.8996094 15.500391 4.1992188 14.900391 3.6992188 C 14.375391 3.2492187 13.79375 3.0246094 13.15625 2.9824219 z M 13.146484 3.9648438 C 13.587109 3.9695313 14.000781 4.1003906 14.300781 4.4003906 C 14.700781 4.8003906 15 5.4 15 6 C 15 6.3 15.2 6.5 15.5 6.5 C 16 6.5 16.399219 6.6996094 16.699219 7.0996094 C 16.999219 7.3996094 17.1 7.9007812 17 8.3007812 L 16.121094 10.742188 C 15.997092 10.669656 15.900391 10.537837 15.900391 10.400391 L 15.900391 8.6992188 C 15.900391 8.3992188 15.700391 8.1003906 15.400391 7.9003906 C 15.100391 7.8003906 14.700391 7.8 14.400391 8 C 12.800391 9.2 10.699219 9.7007813 8.6992188 9.3007812 L 7.6992188 9.0996094 C 6.8992188 9.0996094 6.3007812 9.8 6.3007812 10.5 C 6.3007812 10.642413 6.1970129 10.781358 6.0664062 10.851562 C 6.0135685 10.820753 5.958011 10.800781 5.9003906 10.800781 L 5 7.4003906 C 4.9 6.8003906 5.1003906 6.3007812 5.4003906 5.8007812 C 5.7003906 5.4007813 6.1992188 5.1 6.6992188 5 L 12.699219 4 C 12.849219 3.975 12.999609 3.9632813 13.146484 3.9648438 z M 25.400391 5.6757812 C 24.625391 5.6757812 23.850781 5.95 23.300781 6.5 C 22.700781 7 22.400391 7.7996094 22.400391 8.5996094 C 22.400391 9.2371607 22.599402 9.8078305 22.980469 10.318359 L 20.400391 12.900391 C 20.200391 13.100391 20.200391 13.399609 20.400391 13.599609 C 20.500391 13.699609 20.700781 13.699219 20.800781 13.699219 C 20.900781 13.699219 21.099609 13.599609 21.099609 13.599609 L 23.664062 11.037109 C 24.147265 11.408093 24.771331 11.599609 25.400391 11.599609 C 26.200391 11.599609 27 11.299219 27.5 10.699219 C 28.1 10.199219 28.400391 9.3996094 28.400391 8.5996094 C 28.400391 7.7996094 28.1 7.1 27.5 6.5 C 26.95 5.95 26.175391 5.6757812 25.400391 5.6757812 z M 25.400391 6.5996094 C 25.900391 6.5996094 26.500781 6.7992188 26.800781 7.1992188 C 27.200781 7.5992188 27.400391 8.0996094 27.400391 8.5996094 C 27.400391 9.0996094 27.200781 9.6 26.800781 10 C 26.100781 10.8 24.8 10.8 24 10 C 23.6 9.6 23.400391 9.1996094 23.400391 8.5996094 C 23.400391 7.9996094 23.6 7.5992188 24 7.1992188 C 24.4 6.7992187 24.900391 6.5996094 25.400391 6.5996094 z M 14.699219 8.9003906 L 14.699219 10.400391 C 14.699219 11.162356 15.334787 11.737537 16 11.791016 L 16 12 L 16 13 C 16 13.962176 15.726132 14.844059 15.271484 15.599609 L 12.5 15.599609 C 12.2 15.599609 12 15.799609 12 16.099609 C 12 16.399609 12.2 16.599609 12.5 16.599609 L 14.492188 16.599609 C 13.596539 17.467858 12.372042 18 11 18 C 8.2 18 6 15.8 6 13 L 6 12 L 6 11.865234 C 6.6452543 11.71747 7.0996094 11.109223 7.0996094 10.5 C 7.0996094 10.3 7.3003906 10.099609 7.4003906 10.099609 L 8.3007812 10.300781 C 10.500781 10.700781 12.899219 10.200391 14.699219 8.9003906 z M 4.5 11 L 4.8945312 11 L 5 11.400391 C 5.0031988 11.406788 5.0102717 11.411578 5.0136719 11.417969 C 5.009778 11.445848 5 11.470024 5 11.5 L 5 13 L 4.5 13 C 4.2 13 4 12.8 4 12.5 L 4 11.5 C 4 11.2 4.2 11 4.5 11 z M 17.042969 11 L 17.5 11 C 17.8 11 18 11.2 18 11.5 L 18 12.5 C 18 12.8 17.8 13 17.5 13 L 17 13 L 17 12 L 17 11.535156 C 17.058189 11.465995 17.099609 11.39051 17.099609 11.300781 C 17.099609 11.199188 17.071285 11.113836 17.029297 11.039062 L 17.042969 11 z M 17.96875 13.912109 C 17.838949 14.726282 17.219482 15.380094 16.419922 15.552734 C 16.65068 15.066646 16.8154 14.545981 16.908203 14 L 17.5 14 C 17.662711 14 17.819361 13.964975 17.96875 13.912109 z M 8.5996094 18.494141 C 9.3358665 18.818358 10.147435 19 11 19 C 11.852565 19 12.664134 18.818358 13.400391 18.494141 L 13.400391 19.900391 C 13.400391 20.900391 11.8 21.900781 11 22.300781 C 10.2 21.900781 8.5996094 20.900391 8.5996094 19.900391 L 8.5996094 18.494141 z M 7.8027344 20.734375 C 8.4482257 22.19524 10.547003 23.216188 10.800781 23.300781 L 11 23.300781 L 11.199219 23.300781 C 11.447594 23.135198 13.458904 22.208178 14.150391 20.818359 L 18.5 22.300781 C 19.129321 22.510555 19.661748 22.88446 20.078125 23.359375 C 17.69984 23.994148 16 26.181316 16 28.699219 L 16 29 L 6 29 L 6 28.699219 C 6 26.153245 4.2569376 23.958093 1.9121094 23.351562 C 2.3297714 22.857165 2.8657547 22.452917 3.5 22.199219 L 7.8027344 20.734375 z M 20.599609 24.199219 C 20.724609 24.407552 20.808304 24.634693 20.871094 24.863281 C 20.888762 24.931849 20.906107 25.000367 20.919922 25.070312 C 20.971013 25.320987 21 25.572736 21 25.800781 L 21 29 L 16.900391 29 L 16.900391 28.699219 C 16.900391 26.499219 18.499609 24.599219 20.599609 24.199219 z M 1.3535156 24.216797 C 3.4266211 24.734748 5 26.5183 5 28.699219 L 5 29 L 1 29 L 1 25.800781 C 1 25.599539 1.028148 25.376852 1.0605469 25.15625 C 1.1172232 24.828071 1.2164596 24.513254 1.3535156 24.216797 z " fill="#000000" stroke="none"></path></svg>