<svg xmlns="http://www.w3.org/2000/svg" xmlns:xlink="http://www.w3.org/1999/xlink" version="1.1" x="0px" y="0px" viewBox="0 0 100 100" enable-background="new 0 0 100 100" xml:space="preserve"><polygon fill="none" points="53.7,30.7 54.8,30.6 52.8,23.6 52.1,20.9 45.4,21.1 43.4,31 53.7,30.7 "></polygon><polygon fill="none" points="57.5,40.5 41.4,41.1 39.4,51 60.2,50.3 "></polygon><polygon fill="none" points="39.4,68.4 39.3,68.9 45.8,68.6 41.4,68.4 "></polygon><polygon fill="none" points="41.2,59.5 41.1,59.9 41.5,59.9 60.1,60.6 60.7,60.7 60.3,58.9 "></polygon><path fill="#000000" d="M56.6,30.2L56.6,30.2l-0.5-1.8l-3.8-13.8c-0.1-0.4-0.5-0.7-1-0.7l-5.8,0.2c-0.4,0-0.8,0.3-0.9,0.8l-8,39.9  L29.4,55c-1.2,0-2.1,1-2.1,2.2l0,0.7c0,1.2,1,2.1,2.2,2.1l8.3-0.3l-1,3.7L29.6,63c-1.2,0-2.2,0.9-2.2,2.1l0,0.7  c0,1.2,0.9,2.2,2.1,2.2l8.1,0.3l-0.8,4.3l-7.2,0.3c-1.2,0-2.1,1-2.1,2.2l0,0.7c0,1.2,1,2.1,2.2,2.1l7.7-0.3l-0.5,2.3h-7.2  c-1.2,0-2.1,1-2.1,2.1v0.7c0,1.2,1,2.1,2.1,2.1h41c1.2,0,2.1-1,2.1-2.1V82c0-1.2-1-2.1-2.1-2.1h-7.2l-0.8-3.3l8.1-0.3  c1.2,0,2.1-1,2.1-2.2l0-0.7c0-1.2-1-2.1-2.2-2.1l-7.2,0.3l-0.6-2.2l7.9,0.3c1.2,0,2.2-0.9,2.2-2.1l0-0.7c0-1.2-0.9-2.2-2.1-2.2  l-7.2-0.3l-1.1-5.6l8.3-0.3c1.2,0,2.1-1,2.1-2.2l0-0.7c0-1.2-1-2.1-2.2-2.1l-7.2,0.3L56.6,30.2z M45.4,21.1l6.7-0.2l0.8,2.7l1.9,7  l-1.1,0h0L43.4,31L45.4,21.1z M41.4,41.1l16.2-0.6l2.7,9.8L39.4,51L41.4,41.1z M39.3,68.9l0.1-0.5l2,0.1l4.4,0.2L39.3,68.9z   M60.1,60.6l-18.6-0.8l-0.4,0l0.1-0.3l19.2-0.7l0.4,1.8L60.1,60.6z"></path></svg>