<?xml version="1.0" encoding="iso-8859-1"?>
<!-- Generator: Adobe Illustrator 19.0.0, SVG Export Plug-In . SVG Version: 6.00 Build 0)  -->
<svg version="1.1" id="Capa_1" xmlns="http://www.w3.org/2000/svg" xmlns:xlink="http://www.w3.org/1999/xlink" x="0px" y="0px"
	 viewBox="0 0 480 480" style="enable-background:new 0 0 480 480;" xml:space="preserve">
<g>
	<g>
		<path d="M472,24h-40V8c0-4.418-3.582-8-8-8H264c-4.418,0-8,3.582-8,8v16h-48c-4.418,0-8,3.582-8,8v24h-96
			c-3.89,0.001-7.215,2.8-7.88,6.632L65.272,240H56v-56c0-4.418-3.582-8-8-8H8c-4.418,0-8,3.582-8,8v32c0,4.418,3.582,8,8,8h32v16
			c-22.08,0.026-39.974,17.92-40,40v64c0.024,19.001,13.389,35.373,32,39.2V472c0,4.418,3.582,8,8,8h128c4.418,0,8-3.582,8-8v-88h24
			v88c0,4.418,3.582,8,8,8h264c4.418,0,8-3.582,8-8V32C480,27.582,476.418,24,472,24z M16,208v-16h24v16H16z M160,464H48v-80h16v32
			h16v-32h16v32h16v-32h16v32h16v-32h16V464z M200,336h-56v-16h56V336z M200,304h-56v-16h56V304z M200,272h-64c-4.418,0-8,3.582-8,8
			v64c0,4.418,3.582,8,8,8h64v16H40c-13.255,0-24-10.745-24-24v-64c0-13.255,10.745-24,24-24h160V272z M200,240h-78.56l21.336-128
			H200V240z M200,96h-64c-3.908,0.001-7.243,2.826-7.888,6.68L105.224,240H81.512l29.216-168H200V96z M272,16h144v32H272V16z
			 M464,464H216V40h40v16c0,4.418,3.582,8,8,8h160c4.418,0,8-3.582,8-8V40h32V464z"/>
	</g>
</g>
<g>
	<g>
		<path d="M72,272c-22.091,0-40,17.909-40,40c0,22.091,17.909,40,40,40s40-17.909,40-40C111.974,289.92,94.08,272.026,72,272z
			 M72,336c-13.255,0-24-10.745-24-24s10.745-24,24-24s24,10.745,24,24S85.255,336,72,336z"/>
	</g>
</g>
<g>
	<g>
		<rect x="128" y="432" width="16" height="16"/>
	</g>
</g>
<g>
	<g>
		<rect x="96" y="432" width="16" height="16"/>
	</g>
</g>
<g>
	<g>
		<rect x="64" y="432" width="16" height="16"/>
	</g>
</g>
<g>
	<g>
		<path d="M288,88h-40c-4.418,0-8,3.582-8,8v40c0,4.418,3.582,8,8,8h40c4.418,0,8-3.582,8-8V96C296,91.582,292.418,88,288,88z
			 M280,128h-24v-24h24V128z"/>
	</g>
</g>
<g>
	<g>
		<rect x="320" y="88" width="120" height="16"/>
	</g>
</g>
<g>
	<g>
		<rect x="320" y="120" width="88" height="16"/>
	</g>
</g>
<g>
	<g>
		<path d="M288,184h-40c-4.418,0-8,3.582-8,8v40c0,4.418,3.582,8,8,8h40c4.418,0,8-3.582,8-8v-40C296,187.582,292.418,184,288,184z
			 M280,224h-24v-24h24V224z"/>
	</g>
</g>
<g>
	<g>
		<rect x="320" y="184" width="120" height="16"/>
	</g>
</g>
<g>
	<g>
		<rect x="320" y="216" width="88" height="16"/>
	</g>
</g>
<g>
	<g>
		<path d="M288,280h-40c-4.418,0-8,3.582-8,8v40c0,4.418,3.582,8,8,8h40c4.418,0,8-3.582,8-8v-40C296,283.582,292.418,280,288,280z
			 M280,320h-24v-24h24V320z"/>
	</g>
</g>
<g>
	<g>
		<rect x="320" y="280" width="120" height="16"/>
	</g>
</g>
<g>
	<g>
		<rect x="320" y="312" width="88" height="16"/>
	</g>
</g>
<g>
	<g>
		<path d="M288,376h-40c-4.418,0-8,3.582-8,8v40c0,4.418,3.582,8,8,8h40c4.418,0,8-3.582,8-8v-40C296,379.582,292.418,376,288,376z
			 M280,416h-24v-24h24V416z"/>
	</g>
</g>
<g>
	<g>
		<rect x="320" y="376" width="120" height="16"/>
	</g>
</g>
<g>
	<g>
		<rect x="320" y="408" width="88" height="16"/>
	</g>
</g>
<g>
</g>
<g>
</g>
<g>
</g>
<g>
</g>
<g>
</g>
<g>
</g>
<g>
</g>
<g>
</g>
<g>
</g>
<g>
</g>
<g>
</g>
<g>
</g>
<g>
</g>
<g>
</g>
<g>
</g>
</svg>
