<svg xmlns="http://www.w3.org/2000/svg" xmlns:xlink="http://www.w3.org/1999/xlink" version="1.1" x="0px" y="0px" viewBox="0 0 50 50" style="enable-background:new 0 0 50 50;" xml:space="preserve"><style type="text/css">
	.st0{fill:none;stroke:#000000;stroke-width:2;stroke-miterlimit:10;}
	.st1{fill:none;stroke:#000000;stroke-width:2;stroke-linejoin:round;stroke-miterlimit:10;}
	.st2{fill:none;stroke:#000000;stroke-width:2;stroke-miterlimit:10;stroke-dasharray:2,2;}
	.st3{fill:none;stroke:#000000;stroke-width:2;stroke-linecap:round;stroke-linejoin:round;stroke-miterlimit:10;}
	.st4{fill:none;stroke:#000000;stroke-width:2;stroke-linecap:round;stroke-miterlimit:10;}
	.st5{fill:none;stroke:#000000;stroke-width:2;stroke-linejoin:bevel;stroke-miterlimit:10;}
	.st6{fill:none;stroke:#000000;stroke-width:2;stroke-linejoin:round;stroke-miterlimit:10;stroke-dasharray:2,2;}
	.st7{fill:none;stroke:#000000;stroke-width:2;stroke-miterlimit:10;stroke-dasharray:2,3;}
</style><g><g><rect x="8" y="27" class="st0" width="15" height="9"></rect><line class="st0" x1="8" y1="36" x2="23" y2="27"></line><line class="st0" x1="23" y1="36" x2="8" y2="27"></line></g><rect x="27" y="27" class="st0" width="15" height="9"></rect><path class="st0" d="M35,13.3v-2.6l-2.4-0.4c-0.2-0.9-0.6-1.7-1-2.5l1.4-2L31.1,4l-2,1.4c-0.8-0.5-1.6-0.8-2.5-1L26.3,2h-2.6   l-0.4,2.4c-0.9,0.2-1.7,0.6-2.5,1l-2-1.4L17,5.9l1.4,2c-0.5,0.8-0.8,1.6-1,2.5L15,10.7v2.6l2.4,0.4c0.2,0.9,0.6,1.7,1,2.5l-1.4,2   l1.8,1.8l2-1.4c0.8,0.5,1.6,0.8,2.5,1l0.4,2.4h2.6l0.4-2.4c0.9-0.2,1.7-0.6,2.5-1l2,1.4l1.8-1.8l-1.4-2c0.5-0.8,0.8-1.6,1-2.5   L35,13.3z"></path><circle class="st0" cx="25" cy="12" r="3"></circle><polygon class="st0" points="44,48 6,48 2,44 2,40 48,40 48,44  "></polygon><line class="st2" x1="20" y1="44" x2="30" y2="44"></line><polyline class="st0" points="12,15 4,15 4,40 46,40 46,15 38,15  "></polyline></g></svg>