<svg xmlns="http://www.w3.org/2000/svg" xmlns:xlink="http://www.w3.org/1999/xlink" version="1.1" x="0px" y="0px" viewBox="0 0 100 100" style="enable-background:new 0 0 100 100;" xml:space="preserve"><g><path d="M80.9,26.4L75.4,21c-1.3-1.3-3.4-1.3-4.7,0l0,0L46.5,45.2c-0.6,0.6-1,1.4-1,2.3v6.2c0,1.8,1.5,3.3,3.3,3.3h4.8   c0.9,0,1.7-0.3,2.3-1l24.9-24.9C82.1,29.8,82.1,27.7,80.9,26.4z M53.8,53.9C53.8,54,53.7,54,53.6,54h-4.8c-0.2,0-0.3-0.1-0.3-0.3   v-6.2c0-0.1,0-0.2,0.1-0.2l18.6-18.6l5.9,5.9L53.8,53.9z M78.7,29l-3.5,3.5l-5.9-5.9l3.5-3.5c0.1-0.1,0.3-0.1,0.4,0l5.5,5.5   C78.9,28.7,78.9,28.9,78.7,29z"></path><path d="M80.7,40.7c-0.3-0.8-1.1-1.2-1.9-0.9c-0.8,0.3-1.2,1.1-0.9,1.9c1.1,3.2,1.7,6.5,1.7,9.8c0,10.4-5.3,19.9-14.3,25.3   c-0.7,0.4-0.9,1.4-0.5,2.1c0.3,0.5,0.8,0.7,1.3,0.7c0.3,0,0.5-0.1,0.8-0.2c9.9-5.9,15.7-16.4,15.7-27.8   C82.5,47.8,81.9,44.2,80.7,40.7z"></path><path d="M35,70c-0.8,0-1.5,0.7-1.5,1.5v4.4c-8.2-5.5-13-14.5-13-24.4C20.5,35.2,33.7,22,50,22c3.4,0,6.8,0.6,10,1.7   c0.8,0.3,1.6-0.1,1.9-0.9c0.3-0.8-0.1-1.6-0.9-1.9c-3.5-1.3-7.2-1.9-11-1.9c-17.9,0-32.5,14.6-32.5,32.5c0,10.7,5.1,20.4,13.7,26.5   H27c-0.8,0-1.5,0.7-1.5,1.5S26.2,81,27,81h8c0.8,0,1.5-0.7,1.5-1.5v-8C36.5,70.7,35.8,70,35,70z"></path></g></svg>