<svg xmlns="http://www.w3.org/2000/svg" xmlns:xlink="http://www.w3.org/1999/xlink" version="1.1" x="0px" y="0px" viewBox="0 0 24 24" enable-background="new 0 0 24 24" xml:space="preserve"><g><path d="M17.723,7.193c0.111,0,0.223-0.046,0.302-0.137c0.145-0.167,0.128-0.419-0.039-0.564c-1.492-1.3-3.316-2.068-5.277-2.223   c-0.245-0.018-0.412,0.148-0.43,0.368c-0.018,0.22,0.146,0.413,0.367,0.43c1.788,0.141,3.453,0.842,4.814,2.028   C17.536,7.16,17.629,7.193,17.723,7.193z"></path><path d="M20.912,13.024c-0.073-0.081-0.176-0.133-0.293-0.133c-0.003,0-0.007,0-0.01,0.001l-0.681,0.017   c-0.221,0.005-0.396,0.188-0.39,0.409c0.005,0.218,0.183,0.391,0.399,0.391c0.003,0,0.007,0,0.01-0.001l0.358-0.009   c-0.145,3.629-2.657,6.728-6.071,7.691c-0.014,0.004-0.029,0.008-0.043,0.012c-0.222,0.061-0.448,0.111-0.677,0.154   c-0.063,0.011-0.125,0.021-0.188,0.031c-0.203,0.033-0.408,0.061-0.616,0.079c-0.108,0.009-0.217,0.013-0.326,0.018v-0.438   c0-0.221-0.18-0.4-0.4-0.4s-0.4,0.18-0.4,0.4v0.432c-0.179-0.008-0.358-0.018-0.535-0.038c-0.148-0.017-0.297-0.032-0.443-0.057   c-0.27-0.044-0.537-0.104-0.8-0.174c-3.45-0.94-5.997-4.057-6.143-7.711l0.274-0.007c0.221-0.005,0.396-0.188,0.39-0.409   c-0.005-0.218-0.183-0.391-0.399-0.391c-0.003,0-0.007,0-0.01,0.001l-0.249,0.006c0.104-1.805,0.793-3.541,1.981-4.929   c0.144-0.167,0.124-0.42-0.044-0.563C5.438,7.261,5.185,7.281,5.042,7.449c-1.401,1.638-2.177,3.715-2.192,5.858   c0,0.004-0.002,0.007-0.002,0.011c0,0.002,0.001,0.003,0.001,0.005c0,0.016-0.002,0.032-0.002,0.048   c0,4.044,2.702,7.544,6.431,8.71c0.031,0.02,0.061,0.041,0.098,0.052c0.065,0.019,0.133,0.026,0.199,0.043   c0.294,0.081,0.595,0.145,0.901,0.196c0.163,0.027,0.326,0.044,0.49,0.063c0.099,0.011,0.196,0.03,0.296,0.038   c0.011,0.001,0.021,0.002,0.031,0.002c0.022,0,0.041-0.008,0.062-0.012c0.21,0.014,0.419,0.045,0.63,0.045   c0.226,0,0.449-0.021,0.672-0.037c0.007,0,0.012,0.004,0.019,0.004c0.01,0,0.021-0.001,0.031-0.002   c0.021-0.002,0.041-0.006,0.062-0.008c0.233-0.02,0.463-0.051,0.693-0.088c0.066-0.011,0.132-0.021,0.197-0.033   c0.247-0.045,0.491-0.101,0.733-0.167c0.024-0.007,0.048-0.014,0.073-0.021c0.509-0.143,1.009-0.316,1.493-0.548   c0.034-0.016,0.06-0.042,0.087-0.065c3.012-1.509,5.077-4.634,5.077-8.171C21.123,13.219,21.036,13.092,20.912,13.024z"></path><path d="M19.614,5.163c0.11,0,0.221-0.045,0.3-0.135c0.146-0.166,0.131-0.418-0.035-0.565c-1.986-1.757-4.535-2.811-7.178-2.969   c-0.22-0.02-0.41,0.155-0.423,0.375s0.155,0.41,0.376,0.423c2.5,0.149,4.815,1.106,6.695,2.77   C19.425,5.13,19.519,5.163,19.614,5.163z"></path><path d="M11.693,1.87c-0.014-0.221-0.202-0.393-0.423-0.375C8.627,1.653,6.077,2.707,4.092,4.464   C3.926,4.61,3.91,4.863,4.057,5.029c0.079,0.089,0.189,0.135,0.3,0.135c0.095,0,0.188-0.033,0.265-0.1   c1.854-1.639,4.231-2.623,6.695-2.77C11.537,2.281,11.705,2.091,11.693,1.87z"></path><path d="M3.649,5.448C3.484,5.301,3.231,5.315,3.084,5.481c-1.941,2.182-3.011,4.984-3.011,7.889c0,0.221,0.18,0.4,0.4,0.4   s0.4-0.18,0.4-0.4c0-2.709,0.997-5.322,2.808-7.358C3.828,5.847,3.814,5.594,3.649,5.448z"></path><path d="M6.324,7.13c0.092,0,0.185-0.031,0.26-0.095c1.35-1.15,2.989-1.831,4.741-1.969c0.221-0.018,0.385-0.21,0.367-0.43   c-0.018-0.22-0.193-0.387-0.43-0.368C9.34,4.42,7.543,5.166,6.064,6.426C5.896,6.569,5.875,6.822,6.019,6.99   C6.098,7.082,6.21,7.13,6.324,7.13z"></path><path d="M23.363,7.98L22.73,8.264c-0.482-1.006-1.097-1.943-1.844-2.783c-0.147-0.166-0.399-0.18-0.564-0.033   s-0.18,0.399-0.033,0.564c0.764,0.859,1.387,1.823,1.853,2.865c0.003,0.007,0.01,0.009,0.013,0.015   c0.005,0.021,0.005,0.042,0.014,0.063c0.09,0.202,0.325,0.289,0.529,0.201l0.291-0.131l-0.472,2.448l-2.583-1.23l0.222-0.144   c0.016-0.01,0.025-0.025,0.038-0.037c0.02-0.017,0.039-0.033,0.055-0.053c0.017-0.021,0.029-0.043,0.041-0.066   c0.012-0.022,0.022-0.044,0.029-0.068c0.007-0.025,0.01-0.049,0.012-0.075c0.002-0.025,0.004-0.049,0.002-0.075   c-0.003-0.027-0.01-0.053-0.019-0.08c-0.005-0.016-0.004-0.032-0.011-0.047c-0.008-0.017-0.019-0.033-0.027-0.05   c0,0,0-0.001,0-0.001c0,0,0,0,0,0c-0.336-0.724-0.764-1.404-1.279-2.019c-0.142-0.17-0.395-0.192-0.563-0.051   c-0.169,0.142-0.191,0.395-0.05,0.563c0.407,0.488,0.743,1.025,1.03,1.587l-0.515,0.331c-0.122,0.078-0.191,0.217-0.183,0.361   c0.01,0.145,0.097,0.273,0.228,0.336l3.698,1.763c0.055,0.025,0.113,0.039,0.172,0.039c0.062,0,0.124-0.015,0.181-0.043   c0.11-0.057,0.188-0.16,0.212-0.282l0.715-3.712c0.028-0.146-0.027-0.296-0.145-0.389C23.658,7.94,23.5,7.92,23.363,7.98z"></path><path d="M12.295,15.543c0.221,0,0.4-0.18,0.4-0.4v-0.477c0.727-0.181,1.271-0.835,1.271-1.617s-0.543-1.436-1.271-1.617V9.558   c0-0.221-0.18-0.4-0.4-0.4s-0.4,0.18-0.4,0.4v1.886c-0.566,0.143-1.039,0.563-1.206,1.141c-0.043,0.151-0.065,0.307-0.065,0.464   c0,0.782,0.543,1.436,1.271,1.617v0.477C11.895,15.363,12.074,15.543,12.295,15.543z M11.424,13.049   c0-0.082,0.011-0.164,0.033-0.242c0.107-0.37,0.452-0.628,0.838-0.628c0.48,0,0.87,0.39,0.87,0.87s-0.39,0.87-0.87,0.87   S11.424,13.529,11.424,13.049z"></path></g></svg>