<svg xmlns="http://www.w3.org/2000/svg" xmlns:xlink="http://www.w3.org/1999/xlink" version="1.1" x="0px" y="0px" viewBox="0 0 100 100" style="enable-background:new 0 0 100 100;" xml:space="preserve"><style type="text/css">
	.st0{fill:none;stroke:#000000;stroke-width:2;stroke-linecap:round;stroke-linejoin:round;stroke-miterlimit:10;}
	.st1{fill:none;stroke:#000000;stroke-width:2;stroke-linecap:round;stroke-miterlimit:10;}
</style><path d="M63.4,87.9V52.7c0-0.6-0.4-1-1-1H10.6c-0.6,0-1,0.4-1,1v35.2c0,0.6,0.4,1,1,1h51.8C62.9,88.9,63.4,88.4,63.4,87.9z   M61.4,86.9H11.6V53.7h49.8V86.9z"></path><path d="M87.6,11c0-0.1-0.1-0.2-0.2-0.2c0,0,0-0.1-0.1-0.1c0,0,0,0,0,0c-0.1-0.1-0.2-0.2-0.3-0.2c-0.1-0.1-0.3-0.1-0.4-0.1  c0,0,0,0,0,0H34.9c0,0,0,0,0,0c-0.1,0-0.3,0-0.4,0.1c-0.1,0.1-0.2,0.1-0.3,0.2c0,0,0,0,0,0c0,0,0,0.1-0.1,0.1  C34.1,10.8,34,10.9,34,11c0,0.1,0,0.2-0.1,0.2c0,0,0,0.1,0,0.1v35.2c0,0.6,0.4,1,1,1h51.8c0.1,0,0.3,0,0.4-0.1c0,0,0,0,0.1-0.1  c0.1-0.1,0.2-0.1,0.3-0.2c0,0,0,0,0,0c0,0,0-0.1,0.1-0.1c0-0.1,0.1-0.1,0.1-0.2c0-0.1,0-0.1,0-0.2c0,0,0-0.1,0-0.1V11.4  c0,0,0-0.1,0-0.1C87.7,11.2,87.7,11.1,87.6,11z M35.9,13.8l16.4,16L35.9,44.5V13.8z M62.7,33.4c-1,1-2.7,1-3.7,0l-21.6-21h46.9  L62.7,33.4z M53.7,31.1l3.8,3.7c0.9,0.9,2.1,1.3,3.3,1.3c1.2,0,2.4-0.4,3.3-1.3l3.6-3.5L84,45.6H37.7L53.7,31.1z M69.1,29.9  l16.6-16.2v30.6L69.1,29.9z"></path><path d="M16,69.3h8c0.6,0,1-0.4,1-1V58c0-0.6-0.4-1-1-1h-8c-0.6,0-1,0.4-1,1v10.3C15,68.9,15.5,69.3,16,69.3z M17,59h6v8.3h-6V59z"></path><path d="M39.5,59h18.1c0.6,0,1-0.4,1-1s-0.4-1-1-1H39.5c-0.6,0-1,0.4-1,1S38.9,59,39.5,59z"></path><path d="M39.5,63.4h18.1c0.6,0,1-0.4,1-1s-0.4-1-1-1H39.5c-0.6,0-1,0.4-1,1S38.9,63.4,39.5,63.4z"></path></svg>