<svg xmlns="http://www.w3.org/2000/svg" xmlns:xlink="http://www.w3.org/1999/xlink" version="1.1" x="0px" y="0px" viewBox="0 0 100 100" style="enable-background:new 0 0 100 100;" xml:space="preserve"><style type="text/css">
	.st0{fill:none;}
	.st1{fill:#FFFFFF;}
</style><path d="M50,12.3c-14.1,0-25.5,11.4-25.5,25.6c0,3.7,0.8,7.1,2.1,10.3l22,42.7c0.6,1.2,2.2,1.2,2.8,0l22-42.7  c1.4-3.1,2.1-6.6,2.1-10.3C75.5,23.7,64.1,12.3,50,12.3z M50,58.4c-11.4,0-20.7-9.3-20.7-20.7S38.6,17,50,17s20.7,9.3,20.7,20.7  S61.4,58.4,50,58.4z"></path><path d="M52.3,32.7h-4.7c-2.1,0-3.9,1.8-3.9,3.9v7.8c0,0.4,0.1,0.7,0.2,1.1h12.1c0.1-0.4,0.2-0.7,0.2-1.1v-7.8  C56.2,34.5,54.5,32.7,52.3,32.7z M53.9,43.4H50V35h2.3c0.9,0,1.6,0.7,1.6,1.6V43.4z"></path><path d="M41.5,37.6h-5.1c-0.6,0-1.2,0.5-1.2,1.2c0,0.6,0.5,1.2,1.2,1.2h5.1V37.6z"></path><path d="M58.5,39.9h5.1c0.6,0,1.2-0.5,1.2-1.2c0-0.6-0.5-1.2-1.2-1.2h-5.1V39.9z"></path><path d="M51.2,30.2v-5.1c0-0.6-0.5-1.2-1.2-1.2s-1.2,0.5-1.2,1.2v5.1H51.2z"></path><path d="M44.8,31.9l-3.6-3.6c-0.5-0.5-1.2-0.5-1.6,0c-0.5,0.5-0.5,1.2,0,1.6l3.6,3.6L44.8,31.9z"></path><path d="M56.9,33.6l3.6-3.6c0.5-0.5,0.5-1.2,0-1.6c-0.5-0.5-1.2-0.5-1.6,0l-3.6,3.6L56.9,33.6z"></path></svg>