<svg fill="#51A7F9" xmlns="http://www.w3.org/2000/svg" data-name="Layer 1" viewBox="0 0 100 100" x="0px" y="0px"><title>help and info</title><path d="M71.71,7A21.31,21.31,0,0,1,93,28.29V71.71A21.31,21.31,0,0,1,71.71,93H28.29A21.31,21.31,0,0,1,7,71.71V28.29A21.31,21.31,0,0,1,28.29,7H71.71m0-7H28.29A28.37,28.37,0,0,0,0,28.29V71.71A28.37,28.37,0,0,0,28.29,100H71.71A28.37,28.37,0,0,0,100,71.71V28.29A28.37,28.37,0,0,0,71.71,0h0Z"></path><path d="M55.75,57.27c0,4-.08,8,0,12A5.67,5.67,0,0,1,49,74.91a7.87,7.87,0,0,1-1.51-.4,4.67,4.67,0,0,1-3.16-4.35c0-.32,0-0.65,0-1q0-11.91,0-23.83A5.42,5.42,0,0,1,48,39.95a5.83,5.83,0,0,1,6.75,1.93,4.9,4.9,0,0,1,1,3.06q0,6.16,0,12.33h0Z"></path><path d="M56.13,31.16a6.13,6.13,0,1,1-6-6.16A6.1,6.1,0,0,1,56.13,31.16Z"></path></svg>