<svg xmlns="http://www.w3.org/2000/svg" xmlns:xlink="http://www.w3.org/1999/xlink" version="1.1" x="0px" y="0px" viewBox="0 0 34 34" style="enable-background:new 0 0 34 34;" xml:space="preserve"><path d="M30.5,1h-22v5h-5v27h22v-5h5V1z M23.5,31h-18V8h3v20h15V31z M28.5,26h-18V3h18V26z M19.5,7.5H12v-1h7.5V7.5z M22,11.5h5v1  h-5V11.5z M22,14h5v1h-5V14z M22,16.5h5v1h-5V16.5z M22,19h5v1h-5V19z M27,22.5H12v-1h15V22.5z M27,10H12V9h15V10z M16.3,20  c2.3,0,4.2-1.9,4.2-4.2s-1.9-4.2-4.2-4.2S12,13.4,12,15.7S13.9,20,16.3,20z M19.5,15.7c0,0.1,0,0.2,0,0.3l-2.4-0.6l1.4-2.1  C19.1,13.9,19.5,14.8,19.5,15.7z M16.3,12.5c0.5,0,0.9,0.1,1.3,0.3l-2.1,3.3l3.8,0.9c-0.5,1.2-1.7,2-3,2c-1.8,0-3.2-1.5-3.2-3.2  S14.5,12.5,16.3,12.5z"></path></svg>