<svg xmlns="http://www.w3.org/2000/svg" xmlns:xlink="http://www.w3.org/1999/xlink" version="1.1" x="0px" y="0px" viewBox="0 0 100 100" enable-background="new 0 0 100 100" xml:space="preserve"><g><g><g><g><g><g><path fill="#000000" d="M77.4,27.9H55c-0.7,0-1.3-0.6-1.3-1.3V4.3c0-0.5,0.3-1,0.8-1.2c0.5-0.2,1-0.1,1.4,0.3l22.4,22.4        c0.4,0.4,0.5,0.9,0.3,1.4C78.4,27.6,77.9,27.9,77.4,27.9z M56.2,25.4h18.2L56.2,7.3V25.4z"></path></g></g><g><g><path fill="#000000" d="M46.3,96.2H8.7c-0.7,0-1.3-0.6-1.3-1.3V4.3C7.5,3.6,8.1,3,8.7,3H55c0.3,0,0.6,0.1,0.9,0.4l22.4,22.4        c0.2,0.2,0.4,0.6,0.4,0.9v29.8c0,0.7-0.6,1.3-1.3,1.3s-1.3-0.6-1.3-1.3V27.2L54.5,5.5H10v88.2h36.3c0.7,0,1.3,0.6,1.3,1.3        S47,96.2,46.3,96.2z"></path></g></g></g></g><g><g><path fill="#000000" d="M24,17.6h-7.7c-0.7,0-1.3-0.6-1.3-1.3s0.6-1.3,1.3-1.3H24c0.7,0,1.3,0.6,1.3,1.3S24.7,17.6,24,17.6z"></path></g></g><g><g><path fill="#000000" d="M36.1,17.6h-7.7c-0.7,0-1.3-0.6-1.3-1.3s0.6-1.3,1.3-1.3h7.7c0.7,0,1.3,0.6,1.3,1.3S36.8,17.6,36.1,17.6      z"></path></g></g><g><g><path fill="#000000" d="M40.9,29.7H16.2c-0.7,0-1.3-0.6-1.3-1.3s0.6-1.3,1.3-1.3h24.6c0.7,0,1.3,0.6,1.3,1.3      S41.6,29.7,40.9,29.7z"></path></g></g><g><g><path fill="#000000" d="M70.6,42H16.3c-0.7,0-1.3-0.6-1.3-1.3s0.6-1.3,1.3-1.3h54.4c0.7,0,1.3,0.6,1.3,1.3S71.3,42,70.6,42z"></path></g></g><g><g><path fill="#000000" d="M58.9,54.6H16.3c-0.7,0-1.3-0.6-1.3-1.3s0.6-1.3,1.3-1.3h42.7c0.7,0,1.3,0.6,1.3,1.3      S59.6,54.6,58.9,54.6z"></path></g></g></g><g><g><g><path fill="#000000" d="M87.1,97H54.8c-2,0-3.7-1-4.7-2.7c-1-1.7-1-3.7,0-5.4l16.2-28c1-1.7,2.7-2.7,4.7-2.7c2,0,3.7,1,4.7,2.7      l16.2,28c1,1.7,1,3.7,0,5.4S89,97,87.1,97z M70.9,60.7c-1.1,0-2,0.5-2.5,1.5l-16.2,28c-0.5,0.9-0.5,2,0,2.9      c0.5,0.9,1.5,1.5,2.5,1.5h32.3c1.1,0,2-0.5,2.5-1.5c0.5-0.9,0.5-2,0-2.9l-16.2-28C72.9,61.2,72,60.7,70.9,60.7z"></path></g></g><g><g><path fill="#000000" d="M70.9,82.5c-0.7,0-1.3-0.6-1.3-1.3V70.9c0-0.7,0.6-1.3,1.3-1.3s1.3,0.6,1.3,1.3v10.4      C72.2,82,71.6,82.5,70.9,82.5z"></path></g></g><g><g><circle fill="#000000" cx="70.9" cy="86.9" r="2.4"></circle></g></g></g></g></svg>