<svg xmlns="http://www.w3.org/2000/svg" viewBox="0 0 64 64" x="0px" y="0px"><title>ui ux web app apps list menu</title><g data-name="building hotel vacation trip tour"><path d="M5,20H9a5,5,0,0,0,5-5V11A5,5,0,0,0,9,6H5a5,5,0,0,0-5,5v4A5,5,0,0,0,5,20ZM2,11A3,3,0,0,1,5,8H9a3,3,0,0,1,3,3v4a3,3,0,0,1-3,3H5a3,3,0,0,1-3-3Z"></path><path d="M5,39H9a5,5,0,0,0,5-5V30a5,5,0,0,0-5-5H5a5,5,0,0,0-5,5v4A5,5,0,0,0,5,39ZM2,30a3,3,0,0,1,3-3H9a3,3,0,0,1,3,3v4a3,3,0,0,1-3,3H5a3,3,0,0,1-3-3Z"></path><path d="M5,58H9a5,5,0,0,0,5-5V49a5,5,0,0,0-5-5H5a5,5,0,0,0-5,5v4A5,5,0,0,0,5,58ZM2,49a3,3,0,0,1,3-3H9a3,3,0,0,1,3,3v4a3,3,0,0,1-3,3H5a3,3,0,0,1-3-3Z"></path><path d="M63,12H19a1,1,0,0,0,0,2H63a1,1,0,0,0,0-2Z"></path><path d="M63,31H19a1,1,0,0,0,0,2H63a1,1,0,0,0,0-2Z"></path><path d="M63,50H19a1,1,0,0,0,0,2H63a1,1,0,0,0,0-2Z"></path></g></svg>