<svg xmlns="http://www.w3.org/2000/svg" data-name="Layer 1" viewBox="0 0 100 100" x="0px" y="0px"><title>Artboard 25</title><path d="M85.59,28.16a2.5,2.5,0,0,0,4.85-1.22A25.68,25.68,0,0,0,71.77,8.27a2.5,2.5,0,0,0-1.22,4.85A20.68,20.68,0,0,1,85.59,28.16Z"></path><path d="M69.17,19.41a2.5,2.5,0,0,0-1.28,4.83,9.31,9.31,0,0,1,6.59,6.59,2.5,2.5,0,0,0,4.83-1.28A14.32,14.32,0,0,0,69.17,19.41Z"></path><path d="M4,8l39.33,6.81a15.46,15.46,0,0,1,10.82,7.63A80.64,80.64,0,0,1,58,30.18a48.32,48.32,0,0,1,2.87,8.52H44.09a16.32,16.32,0,0,0,.77-2.17A2.5,2.5,0,0,0,40,35.23a9.78,9.78,0,0,1-1.67,3.47h-.13A20.94,20.94,0,0,1,32.42,33a2.5,2.5,0,0,0-4.13,2.81,25.93,25.93,0,0,0,7.6,7.36l12.71,8.06A4.34,4.34,0,0,1,44,58.59l-9.73-6.06a23.19,23.19,0,0,0-13-3.51,18.27,18.27,0,0,1-14.9-7A2.5,2.5,0,1,0,2.42,45.1a23.26,23.26,0,0,0,9.4,7.13l-.6.59a7.84,7.84,0,0,0,3.17,13.09,7.61,7.61,0,0,0,10,8.83l.31-.11V88.9a8,8,0,0,0,8,8h57.4a8,8,0,0,0,8-8V46.73a8,8,0,0,0-8-8H65.93a2.49,2.49,0,0,0,0-.4,52.17,52.17,0,0,0-3.32-10.11A85.37,85.37,0,0,0,58.45,20,20.44,20.44,0,0,0,44.14,9.93L4.82,3.11A2.5,2.5,0,0,0,4,8ZM14.72,56.39l2.65-2.61a23.06,23.06,0,0,0,4,.24,18.48,18.48,0,0,1,3.24.2v2.7l-.13.06-6.28,3.86a2.86,2.86,0,0,1-3.52-4.46Zm8,13.63a2.61,2.61,0,0,1-2.25-4.67l.08-.07c.12-.07.24-.12.36-.19l3.78-2.33v6.55ZM93.11,46.73V88.9a3,3,0,0,1-3,3H32.68a3,3,0,0,1-3-3V55.73a18.41,18.41,0,0,1,1.94,1l9.73,6.06a9.28,9.28,0,0,0,4.92,1.42A9.44,9.44,0,0,0,48.46,64a9.34,9.34,0,0,0,2.8-17L46,43.7h44A3,3,0,0,1,93.11,46.73Z"></path><path d="M61.38,82.92a2.5,2.5,0,0,0,2.5-2.5,9.27,9.27,0,1,1,18.54,0,2.5,2.5,0,1,0,5,0A14.27,14.27,0,0,0,80.17,68a9.45,9.45,0,1,0-14,0,14.27,14.27,0,0,0-7.25,12.41A2.5,2.5,0,0,0,61.38,82.92ZM68.7,61.7a4.45,4.45,0,1,1,4.45,4.45A4.46,4.46,0,0,1,68.7,61.7Z"></path><path d="M51.71,77.92h-13a2.5,2.5,0,0,0,0,5h13a2.5,2.5,0,0,0,0-5Z"></path><path d="M51.71,68.51h-13a2.5,2.5,0,0,0,0,5h13a2.5,2.5,0,0,0,0-5Z"></path></svg>