<svg xmlns="http://www.w3.org/2000/svg" xmlns:xlink="http://www.w3.org/1999/xlink" version="1.1" x="0px" y="0px" viewBox="0 0 100 100" enable-background="new 0 0 100 100" xml:space="preserve"><polygon points="56.738,66.799 6.941,37.231 3.303,38.353 56.33,69.837 98.395,56.876 95.165,54.959 "></polygon><g><path d="M45.898,23.011l46.983,27.897L57.534,61.801L10.551,33.903L45.898,23.011 M46.234,20.182L4.172,33.144l53.026,31.485   l42.063-12.962L46.234,20.182L46.234,20.182z"></path></g><polygon points="56.084,71.893 8.12,43.415 0.595,45.733 55.189,78.149 98.497,64.804 91.867,60.867 "></polygon><g><path d="M48.826,43.163L47.846,42.6c-2.125-1.136-3.278-2.827-2.946-5.129c0.333-2.049,0.193-3.409-1.339-4.446   c-1.737-1.177-4.415-1.374-7.443-0.241c-1.711,0.661-3.203,1.672-3.744,2.569l-3.286-1.013c0.75-1.16,2.914-2.575,5.433-3.548   c5.465-2.111,10.354-1.427,12.942,0.326c2.316,1.569,2.179,3.397,1.839,5.593c-0.32,2.008,0.418,3.316,2.297,4.438l0.934,0.581   L48.826,43.163z M52.549,46.797c-1.261-0.854-0.958-1.913,0.706-2.556c1.663-0.643,3.688-0.483,4.949,0.371   c1.191,0.808,1.019,1.853-0.739,2.532C55.801,47.787,53.741,47.604,52.549,46.797z"></path></g><polygon points="76.02,45.252 51.029,52.954 53.146,54.211 78.137,46.511 "></polygon><polygon points="80.36,48.291 55.37,55.991 57.487,57.249 82.478,49.549 "></polygon></svg>