<?xml version="1.0" encoding="iso-8859-1"?>
<!-- Generator: Adobe Illustrator 19.0.0, SVG Export Plug-In . SVG Version: 6.00 Build 0)  -->
<svg version="1.1" id="Layer_1" xmlns="http://www.w3.org/2000/svg" xmlns:xlink="http://www.w3.org/1999/xlink" x="0px" y="0px"
	 viewBox="0 0 512 512" style="enable-background:new 0 0 512 512;" xml:space="preserve">
<rect x="70.808" style="fill:#EFEFEF;" width="370.72" height="494.344"/>
<rect x="70.808" y="494.344" style="fill:#2C3E50;" width="370.72" height="17.656"/>
<rect x="267.952" y="236.288" style="fill:#FFFFFF;" width="138.296" height="131.344"/>
<rect x="267.952" y="391.176" style="fill:#2C3E50;" width="138.296" height="67.68"/>
<rect x="106.112" y="94.8" style="fill:#25B6D2;" width="300.136" height="117.944"/>
<rect id="SVGCleanerId_0" x="286.576" y="253.408" style="fill:#E5E5E5;" width="101.056" height="5.888"/>
<g>
	<rect id="SVGCleanerId_0_1_" x="286.576" y="253.408" style="fill:#E5E5E5;" width="101.056" height="5.888"/>
</g>
<g>
	<rect x="286.576" y="268.616" style="fill:#E5E5E5;" width="101.056" height="5.888"/>
	<rect x="286.576" y="283.816" style="fill:#E5E5E5;" width="101.056" height="5.888"/>
	<rect x="286.576" y="299.04" style="fill:#E5E5E5;" width="101.056" height="5.888"/>
</g>
<rect id="SVGCleanerId_1" x="286.576" y="314.24" style="fill:#E5E5E5;" width="101.056" height="5.888"/>
<g>
	<rect id="SVGCleanerId_1_1_" x="286.576" y="314.24" style="fill:#E5E5E5;" width="101.056" height="5.888"/>
</g>
<g>
	<rect x="286.576" y="329.44" style="fill:#E5E5E5;" width="101.056" height="5.888"/>
	<rect x="286.576" y="344.64" style="fill:#E5E5E5;" width="101.056" height="5.888"/>
</g>
<rect x="106.112" y="236.288" style="fill:#FFFFFF;" width="138.296" height="222.568"/>
<rect x="124.736" y="253.408" style="fill:#E5E5E5;" width="101.056" height="5.888"/>
<rect x="124.736" y="253.408" style="fill:#2C3E50;" width="101.056" height="5.888"/>
<g>
	<polyline style="fill:#E5E5E5;" points="124.736,274.496 124.736,268.616 225.792,268.616 225.792,274.496 	"/>
	<rect x="124.736" y="283.816" style="fill:#E5E5E5;" width="101.056" height="5.888"/>
	<rect x="124.736" y="299.04" style="fill:#E5E5E5;" width="101.056" height="5.888"/>
</g>
<rect id="SVGCleanerId_2" x="124.736" y="314.24" style="fill:#E5E5E5;" width="101.056" height="5.888"/>
<g>
	<rect id="SVGCleanerId_2_1_" x="124.736" y="314.24" style="fill:#E5E5E5;" width="101.056" height="5.888"/>
</g>
<g>
	<rect x="124.736" y="329.44" style="fill:#E5E5E5;" width="101.056" height="5.888"/>
	<rect x="124.736" y="344.64" style="fill:#E5E5E5;" width="101.056" height="5.888"/>
	<rect x="124.736" y="359.832" style="fill:#E5E5E5;" width="101.056" height="5.888"/>
</g>
<rect id="SVGCleanerId_3" x="124.736" y="375.032" style="fill:#E5E5E5;" width="101.056" height="5.888"/>
<g>
	<rect id="SVGCleanerId_3_1_" x="124.736" y="375.032" style="fill:#E5E5E5;" width="101.056" height="5.888"/>
</g>
<g>
	<rect x="124.736" y="390.24" style="fill:#E5E5E5;" width="101.056" height="5.888"/>
	<rect x="124.736" y="405.44" style="fill:#E5E5E5;" width="101.056" height="5.888"/>
	<rect x="124.736" y="420.648" style="fill:#E5E5E5;" width="101.056" height="5.888"/>
	<rect x="124.736" y="435.84" style="fill:#E5E5E5;" width="101.056" height="5.888"/>
</g>
<rect x="70.472" style="fill:#25B6D2;" width="370.72" height="59.488"/>
<g>
	<rect x="105.784" y="21.616" style="fill:#FFFFFF;" width="110.072" height="5.888"/>
	<rect x="105.784" y="31.992" style="fill:#FFFFFF;" width="84.296" height="5.888"/>
	<rect x="268.36" y="31.992" style="fill:#FFFFFF;" width="21.6" height="5.888"/>
</g>
<rect x="297.384" y="31.992" style="fill:#2C3E50;" width="21.6" height="5.888"/>
<rect x="326.336" y="31.992" style="fill:#FFFFFF;" width="21.6" height="5.888"/>
<rect x="355.304" y="31.992" style="fill:#2C3E50;" width="21.6" height="5.888"/>
<rect x="384.344" y="31.992" style="fill:#FFFFFF;" width="21.6" height="5.888"/>
<g>
</g>
<g>
</g>
<g>
</g>
<g>
</g>
<g>
</g>
<g>
</g>
<g>
</g>
<g>
</g>
<g>
</g>
<g>
</g>
<g>
</g>
<g>
</g>
<g>
</g>
<g>
</g>
<g>
</g>
</svg>
