<?xml version="1.0" encoding="iso-8859-1"?>
<!-- Generator: Adobe Illustrator 18.0.0, SVG Export Plug-In . SVG Version: 6.00 Build 0)  -->
<!DOCTYPE svg PUBLIC "-//W3C//DTD SVG 1.1//EN" "http://www.w3.org/Graphics/SVG/1.1/DTD/svg11.dtd">
<svg version="1.1" id="Capa_1" xmlns="http://www.w3.org/2000/svg" xmlns:xlink="http://www.w3.org/1999/xlink" x="0px" y="0px"
	 viewBox="0 0 222 222" style="enable-background:new 0 0 222 222;" xml:space="preserve">
<g>
	<path d="M111,0C49.794,0,0,49.794,0,111s49.794,111,111,111s111-49.794,111-111S172.206,0,111,0z M111,12c54.589,0,99,44.411,99,99
		c0,21.017-6.589,40.522-17.801,56.568l-55.417-43.828V90.873c0-14.216-11.566-25.782-25.782-25.782
		c-11.748,0-21.678,7.901-24.775,18.666l-48.97-38.729C55.395,24.77,81.732,12,111,12z M99.936,123.685h-2.718V107.75l21.468,16.978
		c-1.582,1.08-2.621,2.897-2.621,4.957V181h-10.128v-51.315C105.936,126.372,103.25,123.685,99.936,123.685z M97.218,92.45v-1.578
		c0-7.6,6.183-13.782,13.782-13.782s13.782,6.183,13.782,13.782v23.378L97.218,92.45z M111,210c-54.589,0-99-44.411-99-99
		c0-21.017,6.589-40.522,17.801-56.568l55.417,43.828v31.426c0,3.313,2.687,6,6,6h2.718V187c0,3.313,2.687,6,6,6h22.128
		c3.313,0,6-2.687,6-6v-51.315h2.718c0.521,0,1.024-0.073,1.507-0.198l52.457,41.487C166.605,197.23,140.268,210,111,210z"/>
	<path d="M111,64.773c9.863,0,17.887-8.024,17.887-17.886C128.887,37.024,120.863,29,111,29s-17.887,8.024-17.887,17.887
		C93.113,56.749,101.137,64.773,111,64.773z M111,41c3.246,0,5.887,2.641,5.887,5.887c0,3.246-2.641,5.886-5.887,5.886
		s-5.887-2.641-5.887-5.886C105.113,43.641,107.754,41,111,41z"/>
</g>
<g>
</g>
<g>
</g>
<g>
</g>
<g>
</g>
<g>
</g>
<g>
</g>
<g>
</g>
<g>
</g>
<g>
</g>
<g>
</g>
<g>
</g>
<g>
</g>
<g>
</g>
<g>
</g>
<g>
</g>
</svg>
