<svg fill="#EC5D57" xmlns="http://www.w3.org/2000/svg" xmlns:xlink="http://www.w3.org/1999/xlink" xmlns:sketch="http://www.bohemiancoding.com/sketch/ns" viewBox="0 0 60 60" version="1.1" x="0px" y="0px"><title>Found</title><description>Created with Sketch (http://www.bohemiancoding.com/sketch)</description><g stroke="none" stroke-width="1" fill="none" fill-rule="evenodd" sketch:type="MSPage"><g sketch:type="MSLayerGroup" fill="#EC5D57"><path d="M59.9114168,55.8125886 L40.9805332,36.5683236 C43.7148684,32.7662769 45.3471664,28.0914091 45.3471664,23.0194557 C45.3471664,10.305043 35.2080479,0 22.7025689,0 C10.1970899,0 0.0579713115,10.305043 0.0579713115,23.0194557 C0.0579713115,35.7319501 10.1970899,46.0389114 22.7025689,46.0389114 C28.1750133,46.0389114 33.1964528,44.064993 37.1120811,40.7789657 L55.9070971,59.8851139 L59.9114168,55.8125886 L59.9114168,55.8125886 Z M5.68521832,22.9955866 C5.68521832,13.4542756 13.291685,5.72103446 22.676581,5.72103446 C32.061477,5.72103446 39.6679438,13.4542756 39.6679438,22.9955866 C39.6679438,32.5368975 32.061477,40.2701387 22.676581,40.2701387 C13.291685,40.2701387 5.68521832,32.5368975 5.68521832,22.9955866 L5.68521832,22.9955866 Z" sketch:type="MSShapeGroup"></path><text sketch:type="MSTextLayer" font-family="Lucida Grande" font-size="35.5764706" font-weight="bold"><tspan x="16.9672131" y="35">!</tspan></text></g></g></svg>