<svg fill="#70C041" xmlns:dc="http://purl.org/dc/elements/1.1/" xmlns:cc="http://creativecommons.org/ns#" xmlns:rdf="http://www.w3.org/1999/02/22-rdf-syntax-ns#" xmlns:svg="http://www.w3.org/2000/svg" xmlns="http://www.w3.org/2000/svg" xmlns:sodipodi="http://sodipodi.sourceforge.net/DTD/sodipodi-0.dtd" xmlns:inkscape="http://www.inkscape.org/namespaces/inkscape" version="1.1" x="0px" y="0px" viewBox="0 0 100 100"><g transform="translate(0,-952.36218)"><path style="text-indent:0;text-transform:none;direction:ltr;block-progression:tb;baseline-shift:baseline;color:#000000;enable-background:accumulate;" d="m 50,959.36223 c -23.73566,0 -43,19.2643 -43,42.99997 0,23.7356 19.26434,42.9999 43,42.9999 23.73567,0 43,-19.2643 43,-42.9999 0,-23.73567 -19.26433,-42.99997 -43,-42.99997 z m 0,2 c 22.65469,0 41,18.3453 41,40.99997 0,22.6547 -18.34531,40.9999 -41,40.9999 -22.65468,0 -41,-18.3452 -41,-40.9999 0,-22.65467 18.34532,-40.99997 41,-40.99997 z" fill="#70C041" fill-opacity="1" stroke="none" marker="none" visibility="visible" display="inline" overflow="visible"></path><path style="text-indent:0;text-transform:none;direction:ltr;block-progression:tb;baseline-shift:baseline;color:#000000;enable-background:accumulate;" d="m 69.95836,981.34689 a 0.99784741,1.0023576 0 0 0 -0.75,0.4062 l -29,38.53131 -5.96875,-17.1875 a 0.99784741,1.0023576 0 0 0 -1.624999,-0.4063 l -3.3125,3.125 a 1.0035902,1.0081263 0 1 0 1.375,1.4688 l 2.1875,-2.0625 6.062499,17.4687 a 0.99784741,1.0023576 0 0 0 1.75,0.2813 l 30.125,-40.00001 a 0.99784741,1.0023576 0 0 0 -0.75,-1.625 0.99784741,1.0023576 0 0 0 -0.0937,0 z" fill="#70C041" fill-opacity="1" stroke="none" marker="none" visibility="visible" display="inline" overflow="visible"></path></g></svg>