<svg xmlns="http://www.w3.org/2000/svg" xmlns:xlink="http://www.w3.org/1999/xlink" version="1.1" x="0px" y="0px" viewBox="0 0 66.742 66.742" style="enable-background:new 0 0 66.742 66.742;" xml:space="preserve"><g><path d="M62.249,15.217L51.525,4.494l-1.379,1.379L44.274,0h-5.413L0,38.861l0,5.413l5.873,5.873l-1.379,1.379l10.724,10.724   l1.379-1.379l5.873,5.873h5.413l38.861-38.861v-5.413l-5.873-5.872L62.249,15.217z M64.576,23.366v3.618L26.984,64.576h-3.618   l-21.2-21.2v-3.618L39.758,2.167h3.618L64.576,23.366z"></path><polygon points="55.588,27.859 51.719,15.024 38.883,11.155  "></polygon><rect x="41.409" y="14.176" transform="matrix(0.7071 -0.7071 0.7071 0.7071 -5.2438 36.9247)" width="1.083" height="21.232"></rect><rect x="39.723" y="15.861" transform="matrix(0.7071 -0.7071 0.7071 0.7071 -6.929 36.2267)" width="1.083" height="21.232"></rect><path d="M34.849,31.325l-4.422-4.422L16.009,41.319l2.664,2.664l5.836-5.836l1.759,1.759c1.733,1.733,3.1,2.538,4.55,2.691   c1.666,0.196,3.186-0.445,4.742-2.001c1.534-1.535,2.176-3.055,1.979-4.721C37.386,34.425,36.581,33.058,34.849,31.325z    M32.793,37.829c-1.708,1.708-2.92,1.575-5.067-0.571l-1.164-1.164l4.474-4.474l1.164,1.164   C34.347,34.93,34.479,36.143,32.793,37.829z"></path></g></svg>