<svg xmlns:dc="http://purl.org/dc/elements/1.1/" xmlns:cc="http://creativecommons.org/ns#" xmlns:rdf="http://www.w3.org/1999/02/22-rdf-syntax-ns#" xmlns:svg="http://www.w3.org/2000/svg" xmlns="http://www.w3.org/2000/svg" xmlns:sodipodi="http://sodipodi.sourceforge.net/DTD/sodipodi-0.dtd" xmlns:inkscape="http://www.inkscape.org/namespaces/inkscape" version="1.1" x="0px" y="0px" viewBox="0 0 100 100"><g transform="translate(0,-952.36218)"><path style="text-indent:0;text-transform:none;direction:ltr;block-progression:tb;baseline-shift:baseline;color:#000000;enable-background:accumulate;" d="m 11,990.36219 a 1.0000998,1.0000998 0 0 0 -1,1 l 0,22.00001 a 1.0000998,1.0000998 0 0 0 1,1 l 78,0 a 1.0000998,1.0000998 0 0 0 1,-1 l 0,-22.00001 a 1.0000998,1.0000998 0 0 0 -1,-1 l -78,0 z m 1,2 76,0 0,20.00001 -76,0 0,-20.00001 z m 10.875,2.5625 -1.75,1 0.5,0.875 2.625,4.56251 -5.25,0 -1,0 0,2 1,0 5.25,0 -2.625,4.5625 -0.5,0.8438 1.75,1 0.5,-0.8438 2.625,-4.5625 2.625,4.5625 0.5,0.8438 1.75,-1 -0.5,-0.8438 -2.625,-4.5625 5.25,0 1,0 0,-2 -1,0 -5.25,0 2.625,-4.56251 0.5,-0.875 -1.75,-1 -0.5,0.875 -2.625,4.56251 -2.625,-4.56251 -0.5,-0.875 z m 24,0 -1.75,1 0.5,0.875 2.625,4.56251 -5.25,0 -1,0 0,2 1,0 5.25,0 -2.625,4.5625 -0.5,0.8438 1.75,1 0.5,-0.8438 2.625,-4.5625 2.625,4.5625 0.5,0.8438 1.75,-1 -0.5,-0.8438 -2.625,-4.5625 5.25,0 1,0 0,-2 -1,0 -5.25,0 2.625,-4.56251 0.5,-0.875 -1.75,-1 -0.5,0.875 -2.625,4.56251 -2.625,-4.56251 -0.5,-0.875 z m 24,0 -1.75,1 0.5,0.875 2.625,4.56251 -5.25,0 -1,0 0,2 1,0 5.25,0 -2.625,4.5625 -0.5,0.8438 1.75,1 0.5,-0.8438 2.625,-4.5625 2.625,4.5625 0.5,0.8438 1.75,-1 -0.5,-0.8438 -2.625,-4.5625 5.25,0 1,0 0,-2 -1,0 -5.25,0 2.625,-4.56251 0.5,-0.875 -1.75,-1 -0.5,0.875 -2.625,4.56251 -2.625,-4.56251 -0.5,-0.875 z" fill="#000000" fill-opacity="1" stroke="none" marker="none" visibility="visible" display="inline" overflow="visible"></path></g></svg>