<svg xmlns="http://www.w3.org/2000/svg" xmlns:xlink="http://www.w3.org/1999/xlink" version="1.1" x="0px" y="0px" viewBox="0 0 100 100" enable-background="new 0 0 100 100" xml:space="preserve"><g><circle fill="#000000" cx="24.492" cy="60.324" r="4.5"></circle><path fill="#000000" d="M47.674,16.114v8.711H34.688c-6.148,0-12.586,4.535-14.719,10.531l-2.977,9.469   c-6.551,0-12,5.146-12,11.697v7.303c0,6.551,5.449,12,12,12h3v8.062h9v-8.062h18.682v8.062h4.637V16.114H47.674z M25.871,37.237   c1.182-3.311,5.605-6.412,9.121-6.412h12.682v14H23.992L25.871,37.237z M16.992,69.824c-3.135,0-6-2.865-6-6v-7   c0-3.135,2.865-6,6-6l30.682,0.006v18.994H16.992z"></path></g><path fill="#000000" d="M67.677,33.469c-1.281,0-2.318,1.039-2.318,2.318c0,1.281,1.037,2.318,2.318,2.318h16.615  c1.281,0,2.316-1.037,2.316-2.318c0-1.279-1.035-2.318-2.316-2.318H67.677z"></path><path fill="#000000" d="M67.677,42.744c-1.281,0-2.318,1.037-2.318,2.318c0,1.279,1.037,2.318,2.318,2.318h16.615  c1.281,0,2.316-1.039,2.316-2.318c0-1.281-1.035-2.318-2.316-2.318H67.677z"></path><path fill="#000000" d="M67.677,52.018c-1.281,0-2.318,1.037-2.318,2.318c0,1.279,1.037,2.318,2.318,2.318h7.148  c1.281,0,2.316-1.039,2.316-2.318c0-1.281-1.035-2.318-2.316-2.318H67.677z"></path><path fill="#000000" d="M90.755,24.825H61.213c-2.339,0-4.252,1.913-4.252,4.252l0.002,42.564c0,2.338,1.913,4.252,4.252,4.252  h29.54c2.338,0,4.252-1.914,4.252-4.252V29.077C95.007,26.738,93.093,24.825,90.755,24.825z M90.37,69.701  c0,0.781-0.638,1.418-1.418,1.418H63.017c-0.78,0-1.418-0.637-1.418-1.418V30.878c0-0.78,0.638-1.417,1.418-1.417h25.936  c0.78,0,1.418,0.637,1.418,1.417V69.701z"></path></svg>