<svg xmlns="http://www.w3.org/2000/svg" xmlns:xlink="http://www.w3.org/1999/xlink" version="1.1" x="0px" y="0px" viewBox="0 0 66 66" style="enable-background:new 0 0 66 66;" xml:space="preserve"><g><g><path d="M40.8,46.9L40.8,46.9L40.8,46.9C40.8,46.9,40.8,46.9,40.8,46.9c-0.4-0.4-1-0.4-1.4,0c0,0,0,0,0,0l-3.7,3.7    c-0.4,0.4-0.4,1,0,1.4c0.4,0.4,1,0.4,1.4,0l2-2v7.9c0,0.6,0.4,1,1,1c0.6,0,1-0.4,1-1V50l2,2c0.4,0.4,1,0.4,1.4,0    c0.4-0.4,0.4-1,0-1.4L40.8,46.9z"></path></g><g><path d="M56.3,46.9C56.3,46.9,56.3,46.9,56.3,46.9c-0.4-0.4-1-0.4-1.4,0c0,0,0,0,0,0h0l0,0l-3.7,3.7c-0.4,0.4-0.4,1,0,1.4    c0.4,0.4,1,0.4,1.4,0l2-2v7.9c0,0.6,0.4,1,1,1s1-0.4,1-1V50l2,2c0.4,0.4,1,0.4,1.4,0c0.4-0.4,0.4-1,0-1.4L56.3,46.9z"></path></g><g><path d="M66,39.2C66,39.2,66,39.2,66,39.2l0-7.6c0-0.6-0.4-1-1-1H52.5h-3.4V11.5c0-0.6-0.4-1-1-1h-12c-1-1.8-2.6-3.2-4.6-4.2    c-0.2-3.5-3.3-6.4-7-6.4c-3.7,0-6.8,2.8-7,6.4c-2,0.9-3.5,2.4-4.6,4.2H1c-0.6,0-1,0.4-1,1V65c0,0.6,0.4,1,1,1h47.1    c0.6,0,1-0.4,1-1v-1.9H65c0.6,0,1-0.4,1-1L66,39.2C66,39.3,66,39.2,66,39.2z M64,38.2H53.5v-5.6H64V38.2z M42.2,38.2H31.7v-5.6    h10.5V38.2z M44.2,32.6h7.3v8.9h-7.3V32.6z M18.9,7.9c0.4-0.2,0.7-0.6,0.6-1c0-0.1,0-0.1,0-0.2c0-2.6,2.2-4.7,5-4.7    c2.8,0,5,2.1,5,4.7c0,0.1,0,0.1,0,0.2c0,0.4,0.2,0.8,0.6,1c3.2,1.2,5.2,4.1,5.3,7.4H13.7C13.7,12.1,15.8,9.2,18.9,7.9z M47.1,64H2    V12.5h10.1c-0.3,0.9-0.4,1.9-0.4,2.9v0.9c0,0.6,0.4,1,1,1h23.8c0.6,0,1-0.4,1-1v-0.9c0-1-0.2-1.9-0.4-2.9h10.1v18.1h-3.9H30.7    c-0.6,0-1,0.4-1,1v7.6c0,0,0,0,0,0c0,0,0,0,0,0v22.8c0,0.6,0.4,1,1,1h16.4V64z M31.7,61.1V40.2h10.5v2.3c0,0.6,0.4,1,1,1h9.3    c0.6,0,1-0.4,1-1v-2.3H64v20.8H31.7z"></path></g><g><path d="M24.5,11.7c2.1,0,3.9-1.7,3.9-3.9s-1.7-3.9-3.9-3.9s-3.9,1.7-3.9,3.9S22.4,11.7,24.5,11.7z M24.5,5.9c1,0,1.9,0.8,1.9,1.9    s-0.8,1.9-1.9,1.9c-1,0-1.9-0.8-1.9-1.9S23.5,5.9,24.5,5.9z"></path></g><g><path d="M13.7,22.3H6.9c-0.6,0-1,0.4-1,1v7.3c0,0.6,0.4,1,1,1h6.8c0.6,0,1-0.4,1-1v-7.3C14.7,22.7,14.2,22.3,13.7,22.3z     M12.7,29.5H7.9v-5.3h4.8V29.5z"></path></g><g><path d="M13.7,35.7H6.9c-0.6,0-1,0.4-1,1V44c0,0.6,0.4,1,1,1h6.8c0.6,0,1-0.4,1-1v-7.3C14.7,36.2,14.2,35.7,13.7,35.7z M12.7,43    H7.9v-5.3h4.8V43z"></path></g><g><path d="M13.7,49.2H6.9c-0.6,0-1,0.4-1,1v7.3c0,0.6,0.4,1,1,1h6.8c0.6,0,1-0.4,1-1v-7.3C14.7,49.6,14.2,49.2,13.7,49.2z     M12.7,56.5H7.9v-5.3h4.8V56.5z"></path></g><g><path d="M26.2,35.7h-6.8c-0.6,0-1,0.4-1,1V44c0,0.6,0.4,1,1,1h6.8c0.6,0,1-0.4,1-1v-7.3C27.2,36.2,26.8,35.7,26.2,35.7z M25.2,43    h-4.8v-5.3h4.8V43z"></path></g><g><path d="M26.2,49.2h-6.8c-0.6,0-1,0.4-1,1v7.3c0,0.6,0.4,1,1,1h6.8c0.6,0,1-0.4,1-1v-7.3C27.2,49.6,26.8,49.2,26.2,49.2z     M25.2,56.5h-4.8v-5.3h4.8V56.5z"></path></g><g><path d="M29.5,21.8c-0.4-0.4-1-0.4-1.4,0l-5.4,5.4l-2.2-3.2c-0.3-0.5-0.9-0.6-1.4-0.3c-0.5,0.3-0.6,0.9-0.3,1.4l2.9,4.2    c0.2,0.2,0.4,0.4,0.7,0.4c0.3,0,0.6-0.1,0.8-0.3l6.2-6.3C29.8,22.8,29.8,22.2,29.5,21.8z"></path></g><g><path d="M35.1,29.1c0.2,0.2,0.4,0.4,0.7,0.4c0,0,0.1,0,0.1,0c0.3,0,0.5-0.1,0.7-0.3l6.2-6.3c0.4-0.4,0.4-1,0-1.4    c-0.4-0.4-1-0.4-1.4,0L36,27l-2.2-3.2c-0.3-0.5-0.9-0.6-1.4-0.3c-0.5,0.3-0.6,0.9-0.3,1.4L35.1,29.1z"></path></g></g></svg>