<svg xmlns="http://www.w3.org/2000/svg" xmlns:xlink="http://www.w3.org/1999/xlink" version="1.1" x="0px" y="0px" viewBox="0 0 110 110" enable-background="new 0 0 110 110" xml:space="preserve"><g><path d="M65.898,64.038l-6.421,22.996l-1.189-13.143h-6.576l-1.19,13.143l-6.42-22.996C26.846,73.12,8,67.671,8,104h94   C102,67.671,83.155,73.12,65.898,64.038z"></path><path d="M51.715,71.428h6.57l2.464-7.39c0,0-2.116-1.817-5.749-1.817s-5.748,1.817-5.748,1.817L51.715,71.428z"></path><path d="M37.149,45.753c0.18-0.032,0.337-0.138,0.484-0.276C39.984,52.419,44.804,58,54.5,58c9.695,0,14.516-5.581,16.867-12.522   c0.146,0.137,0.304,0.243,0.482,0.275c1.131,0.201,2.456-1.929,2.957-4.756c0.502-2.828-0.01-5.283-1.141-5.483   c-0.13-0.023-0.263-0.007-0.396,0.028c0.17-2.092,0.229-4.14,0.229-6.042c0-0.159-0.008-0.309-0.011-0.464   c0.001-0.023,0.011-0.04,0.011-0.063c0-4.897-2.223-13.083-7.5-10.972c-1.584-1.583-2.527-4.861-11.5-4.861   c-7.933,0-14.723,4.054-17.568,9.809c-0.614,1.105-1.044,2.43-1.262,4.014c-0.057,0.374-0.092,0.752-0.117,1.133   c-0.012,0.171-0.024,0.341-0.031,0.518c-0.003,0.121-0.022,0.238-0.022,0.36c0,0.011,0.011,0.02,0.012,0.03   C35.508,29.168,35.5,29.329,35.5,29.5c0,1.902,0.06,3.949,0.229,6.042c-0.134-0.036-0.267-0.051-0.397-0.028   c-1.131,0.201-1.642,2.655-1.14,5.483C34.693,43.824,36.018,45.954,37.149,45.753z M54.5,55c-6.832,0-15.897-2.624-15.996-25.139   C45.554,30.44,62.831,28.857,66,24.5c0.536,2.413,2.65,4.271,4.499,5.08C70.477,52.36,61.36,55,54.5,55z"></path></g></svg>