<svg xmlns:dc="http://purl.org/dc/elements/1.1/" xmlns:cc="http://creativecommons.org/ns#" xmlns:rdf="http://www.w3.org/1999/02/22-rdf-syntax-ns#" xmlns:svg="http://www.w3.org/2000/svg" xmlns="http://www.w3.org/2000/svg" xmlns:sodipodi="http://sodipodi.sourceforge.net/DTD/sodipodi-0.dtd" xmlns:inkscape="http://www.inkscape.org/namespaces/inkscape" viewBox="0 0 343.7524 349.99603" version="1.1" x="0px" y="0px"><g transform="translate(-301.11987,603.84482)"><path style="" d="m 301.3618,-256.75919 c 1.52122,-18.30007 8.13757,-34.32046 19.7397,-47.79636 12.38467,-14.38483 29.09935,-23.7011 48.70708,-27.14791 5.05279,-0.88822 20.69998,-0.88822 25.75277,0 19.60773,3.44681 36.32241,12.76308 48.70708,27.14791 11.60213,13.4759 18.21848,29.49629 19.7397,47.79636 l 0.24193,2.91042 h -81.5651 -81.56509 z m 180.62221,0 c 1.52122,-18.30007 8.13757,-34.32046 19.7397,-47.79636 12.38467,-14.38483 29.09935,-23.7011 48.70708,-27.14791 5.05279,-0.88822 20.69998,-0.88822 25.75277,0 19.60773,3.44681 36.32241,12.76308 48.70708,27.14791 11.60213,13.4759 18.21848,29.49629 19.7397,47.79636 l 0.24193,2.91042 h -81.5651 -81.56509 z m -106.37176,-87.94636 c -7.44043,-1.34771 -14.59706,-5.01706 -20.18385,-10.34864 -7.95528,-7.59189 -12.25454,-17.63153 -12.25454,-28.61679 0,-10.35197 3.77487,-19.79634 10.89431,-27.25657 15.64457,-16.39341 41.58902,-16.39341 57.23359,0 15.09726,15.81991 14.49042,40.74675 -1.36023,55.87336 -7.56992,7.22412 -17.01073,10.94419 -27.56736,10.86266 -2.25441,-0.0174 -5.29727,-0.24872 -6.76192,-0.51402 z m 10.60975,-10.05547 c 14.43565,-1.78956 25.39074,-14.18696 25.39074,-28.73357 0,-17.19825 -15.23622,-30.81142 -32.19097,-28.76179 -21.64687,2.61683 -32.78717,26.88845 -20.66209,45.01694 4.40927,6.59242 12.27073,11.48257 20.04473,12.46868 3.31616,0.42064 4.09481,0.42166 7.41759,0.01 z m 170.01246,10.05547 c -7.44043,-1.34771 -14.59706,-5.01706 -20.18385,-10.34864 -7.95528,-7.59189 -12.25454,-17.63153 -12.25454,-28.61679 0,-10.35197 3.77487,-19.79634 10.89431,-27.25657 15.64457,-16.39341 41.58902,-16.39341 57.23359,0 15.09726,15.81991 14.49042,40.74675 -1.36023,55.87336 -7.56992,7.22412 -17.01073,10.94419 -27.56736,10.86266 -2.25441,-0.0174 -5.29727,-0.24872 -6.76192,-0.51402 z m 10.60975,-10.05547 c 14.43565,-1.78956 25.39074,-14.18696 25.39074,-28.73357 0,-17.19825 -15.23622,-30.81142 -32.19097,-28.76179 -21.64687,2.61683 -32.78717,26.88845 -20.66209,45.01694 4.40927,6.59242 12.27073,11.48257 20.04473,12.46868 3.31616,0.42064 4.09481,0.42166 7.41759,0.01 z m -175.1713,-82.62038 c 1.52121,-18.30007 8.13757,-34.32046 19.73969,-47.79636 12.38468,-14.38483 29.09935,-23.7011 48.70708,-27.14791 5.0528,-0.88822 20.69998,-0.88822 25.75278,0 19.60773,3.44681 36.3224,12.76308 48.70708,27.14791 11.60212,13.4759 18.21848,29.49629 19.73969,47.79636 l 0.24194,2.91042 h -81.5651 -81.5651 z m 74.25044,-87.94636 c -7.44042,-1.34771 -14.59706,-5.01706 -20.18384,-10.34864 -7.95528,-7.59189 -12.25455,-17.63153 -12.25455,-28.61679 0,-10.35197 3.77487,-19.79634 10.89432,-27.25656 15.64457,-16.39342 41.58901,-16.39342 57.23358,0 15.09727,15.8199 14.49043,40.74674 -1.36023,55.87335 -7.56991,7.22412 -17.01073,10.94419 -27.56735,10.86266 -2.25442,-0.0174 -5.29728,-0.24872 -6.76193,-0.51402 z" fill="#000000" stroke-width="0.35277775"></path></g></svg>