<svg xmlns="http://www.w3.org/2000/svg" xmlns:xlink="http://www.w3.org/1999/xlink" version="1.1" x="0px" y="0px" viewBox="0 0 100 100" style="enable-background:new 0 0 100 100;" xml:space="preserve"><g><path d="M42.5,82c8.6,0,16.5-3,22.8-8l17.9,17.9C84,92.6,85,93,86,93s2-0.4,2.8-1.2c1.6-1.6,1.6-4.1,0-5.7L70.9,68.3   c5-6.3,8-14.2,8-22.8C79,25.4,62.6,9,42.5,9C22.4,9,6,25.4,6,45.5C6,65.6,22.4,82,42.5,82z M42.5,17C58.2,17,71,29.8,71,45.5   C71,61.2,58.2,74,42.5,74C26.8,74,14,61.2,14,45.5C14,29.8,26.8,17,42.5,17z"></path><path d="M42.5,24c1.1,0,2-0.9,2-2s-0.9-2-2-2C28.4,20,17,31.4,17,45.5c0,1.1,0.9,2,2,2s2-0.9,2-2C21,33.6,30.6,24,42.5,24z"></path></g></svg>