<svg xmlns="http://www.w3.org/2000/svg" xmlns:xlink="http://www.w3.org/1999/xlink" version="1.1" x="0px" y="0px" viewBox="0 0 164 164" enable-background="new 0 0 164 164" xml:space="preserve"><path fill-rule="evenodd" clip-rule="evenodd" d="M85.722,69.876h21.488v6.898H85.722V69.876L85.722,69.876z M85.722,53.575h53.291  v6.898H85.722V53.575L85.722,53.575z M85.722,119.506h37.39v6.898h-37.39V119.506L85.722,119.506z M85.722,103.205h53.291v6.897  H85.722V103.205L85.722,103.205z M85.722,86.902h53.291v6.898H85.722V86.902L85.722,86.902z M85.722,37.272h53.291v6.898H85.722  V37.272L85.722,37.272z M154.008,136.846V27.474c0-3.665-3.016-6.68-6.68-6.68H16.353c-3.665,0-6.68,3.016-6.68,6.68v109.372  c0,3.664,3.016,6.681,6.68,6.681h130.976C150.992,143.526,154.008,140.51,154.008,136.846L154.008,136.846z M163.68,27.474  c0-9.003-7.349-16.353-16.352-16.353H16.353C7.35,11.122,0,18.471,0,27.474v109.372c0,9.002,7.35,16.353,16.352,16.353h130.976  c9.003,0,16.352-7.35,16.352-16.353V27.474L163.68,27.474z M35.54,51.432c0.476-4.026,1.726-7.254,3.228-9.763  c4.279-7.143,11.664-7.474,16.28-0.348c2.861,4.415,3.832,10.24,3.818,15.293c0.001,0.713,0.144,1.194,0.613,1.927  c-2.947,0.631-4.772,1.371-7.665-0.217c-0.236,0.727-0.409,1.637-0.417,2.525c-0.001,0.148,0.001,0.289,0.007,0.422  c-1.214,0.7-2.665,1.106-4.227,1.106c-1.479,0-2.857-0.365-4.03-0.998c0.01-0.19,0.01-0.393-0.002-0.609  c-0.047-0.833-0.281-1.705-0.587-2.46c-2.863,1.637-3.971,1.049-7.089,0.382C35.875,56.666,34.974,56.221,35.54,51.432L35.54,51.432  z M45.867,112.257l-0.989-2.489l0.553-0.804l3.005-0.001l0.601,0.72l-0.826,2.574H45.867L45.867,112.257z M46.968,85.234  c12.468-0.17,9.033,21.593,0.099,21.641C38.656,106.92,34.036,85.314,46.968,85.234L46.968,85.234z M39.676,109.202  c1.069,5.523,2.9,9.262,5.476,10.789c0.251-2.3,0.502-4.681,0.78-7.04h2.256l0.859,7.155c2.226-1.24,4.586-4.864,5.995-10.977  c4.325,3.991,9.547,1.617,12.016,13.91c-12.62,5.994-26.077,5.994-39.763,0C29.819,110.977,36.094,112.979,39.676,109.202  L39.676,109.202z M53.942,64.092c0.451,0.085,0.946,0.162,1.473,0.281c5.637,1.272,9.675,5.956,10.211,11.286  c-9.596,3.654-26.486,3.771-36.901,0c1.045-7.565,7.879-10.476,11.605-11.44c0.065-0.017,0.128-0.034,0.192-0.052  c1.876,1.23,4.175,1.955,6.653,1.955C49.704,66.122,52.046,65.367,53.942,64.092z"></path></svg>