<svg xmlns:dc="http://purl.org/dc/elements/1.1/" xmlns:cc="http://creativecommons.org/ns#" xmlns:rdf="http://www.w3.org/1999/02/22-rdf-syntax-ns#" xmlns:svg="http://www.w3.org/2000/svg" xmlns="http://www.w3.org/2000/svg" xmlns:sodipodi="http://sodipodi.sourceforge.net/DTD/sodipodi-0.dtd" xmlns:inkscape="http://www.inkscape.org/namespaces/inkscape" version="1.1" x="0px" y="0px" viewBox="0 0 100 100"><g transform="translate(0,-952.36218)"><path style="text-indent:0;text-transform:none;direction:ltr;block-progression:tb;baseline-shift:baseline;color:#000000;enable-background:accumulate;" d="m 7.8124816,971.38215 a 2.0001988,1.9995526 0 0 0 -1.8125,1.99935 l 0,37.9877 a 2.0001988,1.9995526 0 0 0 3.40625,1.4058 l 9.5312494,-9.5282 26.59375,29.428 a 2.0001988,1.9995526 0 0 0 2.71875,0.2499 c 5.489468,-4.3906 10.583079,-9.1443 15.6875,-13.808 l 0.28125,0.2811 -9.6875,10.5904 a 2.0001988,1.9995526 0 0 0 1.46875,3.3739 l 36,0 a 2.0001988,1.9995526 0 0 0 2,-1.9994 l 0,-37.98766 a 2.0001988,1.9995526 0 0 0 -3.40625,-1.43703 l -9.53125,9.52809 -26.59375,-29.42791 a 2.0001988,1.9995526 0 0 0 -1.78125,-0.65604 2.0001988,1.9995526 0 0 0 -0.9375,0.43736 c -5.488541,4.38982 -10.583942,9.11818 -15.6875,13.7768 l -0.28125,-0.28116 9.6875,-10.59033 a 2.0001988,1.9995526 0 0 0 -1.46875,-3.34267 l -35.9999994,0 a 2.0001988,1.9995526 0 0 0 -0.1875,0 z m 2.1875,3.99871 29.4374994,0 -7.90625,8.62221 a 2.0001988,1.9995526 0 0 0 0.0625,2.78035 l 2.84375,2.81159 a 2.0001988,1.9995526 0 0 0 0.15625,0.18744 l 26.5,26.49145 c -4.607971,4.2089 -9.183575,8.4048 -13.9375,12.3085 l -26.6875,-29.55293 a 2.0001988,1.9995526 0 0 0 -2.875,-0.0937 l -7.5937494,7.59123 0,-31.14614 z m 42.8437494,0.74976 26.6875,29.55288 a 2.0001988,1.9995526 0 0 0 2.875,0.094 l 7.59375,-7.59151 0,31.17741 -29.46875,0 7.9375,-8.6535 a 2.0001988,1.9995526 0 0 0 -0.0625,-2.7803 l -2.84375,-2.8116 a 2.0001988,1.9995526 0 0 0 -0.15625,-0.1875 l -26.5,-26.49136 c 4.612194,-4.21279 9.178833,-8.40191 13.9375,-12.30852 z" fill="#000000" fill-opacity="1" stroke="none" marker="none" visibility="visible" display="inline" overflow="visible"></path></g></svg>