<svg xmlns="http://www.w3.org/2000/svg" data-name="Layer 1" viewBox="0 0 100 100" x="0px" y="0px"><title>Artboard 66</title><path d="M19.23,27.24H38a8.55,8.55,0,0,1,8.54,8.54V58a4.82,4.82,0,0,1-6.61,4.51L38,96.18A3,3,0,0,1,35,99H22.17a3,3,0,0,1-3-2.82L17.3,62.49A4.83,4.83,0,0,1,10.69,58V35.78A8.55,8.55,0,0,1,19.23,27.24Zm9.37-5.12A10.56,10.56,0,1,0,18,11.56,10.56,10.56,0,0,0,28.6,22.12ZM53.48,35.78V58a4.83,4.83,0,0,0,6.61,4.51L62,96.18A3,3,0,0,0,65,99H77.84a3,3,0,0,0,3-2.82l1.88-33.69A4.82,4.82,0,0,0,89.31,58V35.78a8.55,8.55,0,0,0-8.54-8.54H62A8.55,8.55,0,0,0,53.48,35.78ZM71.4,22.12A10.56,10.56,0,1,0,60.84,11.56,10.56,10.56,0,0,0,71.4,22.12Z"></path></svg>