<svg xmlns:dc="http://purl.org/dc/elements/1.1/" xmlns:cc="http://creativecommons.org/ns#" xmlns:rdf="http://www.w3.org/1999/02/22-rdf-syntax-ns#" xmlns:svg="http://www.w3.org/2000/svg" xmlns="http://www.w3.org/2000/svg" xmlns:sodipodi="http://sodipodi.sourceforge.net/DTD/sodipodi-0.dtd" xmlns:inkscape="http://www.inkscape.org/namespaces/inkscape" version="1.1" x="0px" y="0px" viewBox="0 0 100 100"><g transform="translate(0,-952.36218)"><g transform="translate(7.0019695,959.32871)"><path d="M 43.015747,0.03543307 C 19.27559,0.03543307 0,19.311025 0,43.015751 0,55.594492 5.3858267,66.897642 13.996063,74.763784 l 0,0.283465 0.318897,0 c 7.61811,6.80315 17.645669,10.984253 28.700787,10.984253 11.019685,0 21.047244,-4.181103 28.665354,-10.984253 l 0.318897,0 0,-0.283465 c 8.610236,-7.866142 13.996063,-19.169292 13.996063,-31.748033 0,-23.704726 -19.27559,-42.98031793 -42.980314,-42.98031793 z m 0,1.98425213 c 22.641732,0 40.996062,18.3543318 40.996062,40.9960658 0,11.338583 -4.606299,21.614175 -12.011811,29.019687 l 0,-9.000001 c 0,-7.192914 -5.811023,-13.003938 -13.003936,-13.003938 l -31.996063,0 c -7.192913,0 -13.003936,5.811024 -13.003936,13.003938 l 0,9.000001 C 6.590551,64.629926 1.9842519,54.354334 1.9842519,43.015751 1.9842519,20.374017 20.338582,2.0196852 43.015747,2.0196852 z m 0,7.0157485 c -8.362204,0 -15.023622,7.6889773 -15.023622,17.0078753 0,9.283465 6.661418,16.972442 15.023622,16.972442 8.326772,0 14.988189,-7.688977 14.988189,-16.972442 0,-9.318898 -6.661417,-17.0078753 -14.988189,-17.0078753 z m 0,1.9842523 c 7.086614,0 12.968504,6.661418 12.968504,15.023623 0,8.362205 -5.88189,14.98819 -12.968504,14.98819 -7.122047,0 -13.003937,-6.625985 -13.003937,-14.98819 0,-8.362205 5.88189,-15.023623 13.003937,-15.023623 z m -16.015748,40.996065 31.996063,0 c 6.129921,0 11.019684,4.889765 11.019684,11.019686 l 0,10.842521 C 62.7874,80.185045 53.362204,84.04725 43.015747,84.04725 c -10.381889,0 -19.807086,-3.862205 -26.999999,-10.169292 l 0,-10.842521 c 0,-6.129921 4.889763,-11.019686 10.984251,-11.019686 z" style="" fill="#000000" fill-opacity="1" fill-rule="nonzero" stroke="none"></path></g></g></svg>