<svg xmlns="http://www.w3.org/2000/svg" xmlns:xlink="http://www.w3.org/1999/xlink" viewBox="0 0 60 60" version="1.1" x="0px" y="0px"><title>27 -Web Service- (development, coding, code, programming)</title><desc>Created with Sketch.</desc><g stroke="none" stroke-width="1" fill="none" fill-rule="evenodd" stroke-linecap="round" stroke-linejoin="round"><g transform="translate(-840.000000, -590.000000)" stroke="#000000" stroke-width="2"><g transform="translate(841.000000, 591.000000)"><path d="M27,18 C27,13.029 22.971,9 18,9 C13.029,9 9,13.029 9,18 C9,22.971 13.029,27 18,27 C22.971,27 27,22.971 27,18 L27,18 Z"></path><path d="M58,47 L58,41 L55.94,41 C55.157,41 54.458,40.525 54.161,39.801 C54.158,39.793 54.155,39.785 54.151,39.777 C53.854,39.056 54.012,38.23 54.564,37.679 L56.021,36.222 L51.778,31.979 L50.321,33.436 C49.77,33.988 48.944,34.146 48.223,33.849 C48.215,33.845 48.207,33.842 48.199,33.839 C47.475,33.542 47,32.843 47,32.06 L47,30 L41,30 L41,32.06 C41,32.843 40.525,33.542 39.801,33.839 C39.793,33.842 39.785,33.845 39.777,33.849 C39.056,34.146 38.23,33.988 37.679,33.436 L36.222,31.979 L31.979,36.222 L33.436,37.679 C33.988,38.23 34.146,39.056 33.849,39.777 C33.845,39.785 33.842,39.793 33.839,39.801 C33.542,40.525 32.843,41 32.06,41 L30,41 L30,47 L32.06,47 C32.843,47 33.542,47.475 33.839,48.199 C33.842,48.207 33.845,48.215 33.849,48.223 C34.146,48.944 33.988,49.77 33.436,50.321 L31.979,51.778 L36.222,56.021 L37.679,54.564 C38.23,54.012 39.056,53.854 39.777,54.151 C39.785,54.155 39.793,54.158 39.801,54.161 C40.525,54.458 41,55.157 41,55.94 L41,58 L47,58 L47,55.94 C47,55.157 47.475,54.458 48.199,54.161 C48.207,54.158 48.215,54.155 48.223,54.151 C48.944,53.854 49.77,54.012 50.321,54.564 L51.778,56.021 L56.021,51.778 L54.564,50.321 C54.012,49.77 53.854,48.944 54.151,48.223 C54.155,48.215 54.158,48.207 54.161,48.199 C54.458,47.475 55.157,47 55.94,47 L58,47 L58,47 Z"></path><path d="M50,44 C50,40.686 47.314,38 44,38 C40.686,38 38,40.686 38,44 C38,47.314 40.686,50 44,50 C47.314,50 50,47.314 50,44 L50,44 Z"></path><path d="M36,21 L36,15 L35.785,15 C34.048,15 32.539,13.909 31.877,12.304 C31.868,12.282 31.859,12.26 31.85,12.238 C31.177,10.628 31.464,8.779 32.698,7.545 L32.849,7.393 L28.607,3.151 L28.455,3.302 C27.221,4.536 25.372,4.824 23.762,4.15 C23.74,4.141 23.718,4.132 23.696,4.123 C22.091,3.461 21,1.952 21,0.215 L21,0 L15,0 L15,0.215 C15,1.952 13.909,3.461 12.304,4.123 C12.282,4.132 12.26,4.141 12.238,4.15 C10.628,4.824 8.779,4.536 7.545,3.302 L7.393,3.151 L3.151,7.393 L3.302,7.545 C4.536,8.779 4.823,10.628 4.15,12.238 C4.141,12.26 4.132,12.282 4.123,12.304 C3.461,13.909 1.952,15 0.215,15 L0,15 L0,21 L0.215,21 C1.952,21 3.461,22.091 4.123,23.696 C4.132,23.718 4.141,23.74 4.15,23.762 C4.823,25.372 4.536,27.221 3.302,28.455 L3.151,28.607 L7.393,32.849 L7.545,32.698 C8.779,31.464 10.628,31.176 12.238,31.85 C12.26,31.859 12.282,31.868 12.304,31.877 C13.909,32.539 15,34.048 15,35.785 L15,36 L21,36 L21,35.785 C21,34.048 22.091,32.539 23.696,31.877 C23.718,31.868 23.74,31.859 23.762,31.85 C25.372,31.176 27.221,31.464 28.455,32.698 L28.607,32.849 L32.849,28.607 L32.698,28.455 C31.464,27.221 31.177,25.372 31.85,23.762 C31.859,23.74 31.868,23.718 31.877,23.696 C32.539,22.091 34.048,21 35.785,21 L36,21 L36,21 Z"></path></g></g></g></svg>